<?xml version="1.0" standalone="no"?>
<!DOCTYPE svg PUBLIC "-//W3C//DTD SVG 1.1//EN" "http://www.w3.org/Graphics/SVG/1.1/DTD/svg11.dtd" >
<svg>
<metadata>
Created by FontForge 20090622 at Wed Aug  2 08:28:10 2017
 By deploy user
&#194;&#169; 2001, Graham Meade &#38; Apostrophic Lab. All rights reserved. email info@apostrophiclab.com or visit www.apostrophiclab.com for more info.
</metadata>
<defs>
<font id="Kandide" horiz-adv-x="352" >
  <font-face 
    font-family="Kandide"
    font-weight="400"
    font-stretch="normal"
    units-per-em="1000"
    panose-1="2 0 4 0 0 0 0 0 0 0"
    ascent="800"
    descent="-200"
    x-height="528"
    cap-height="764"
    bbox="-157 -247 1041 953"
    underline-thickness="41"
    underline-position="-61"
    unicode-range="U+0020-U+2122"
  />
<missing-glyph horiz-adv-x="500" 
 />
    <glyph glyph-name=".notdef" horiz-adv-x="500" 
 />
    <glyph glyph-name=".null" horiz-adv-x="0" 
 />
    <glyph glyph-name="nonmarkingreturn" horiz-adv-x="500" 
 />
    <glyph glyph-name="space" unicode=" " horiz-adv-x="316" 
 />
    <glyph glyph-name="space" unicode="&#xa0;" horiz-adv-x="316" 
 />
    <glyph glyph-name="exclam" unicode="!" horiz-adv-x="158" 
d="M123 232v523q-44 -3 -61 -21t-17 -62v-508q78 4 78 68zM123 61v75q-78 -6 -78 -69v-74q78 4 78 68z" />
    <glyph glyph-name="quotedbl" unicode="&#x22;" horiz-adv-x="294" 
d="M259 527v162q0 63 -78 68v-162q0 -31 19.5 -49.5t58.5 -18.5zM123 527l-1 49l1 113q0 63 -78 68v-162q0 -65 78 -68z" />
    <glyph glyph-name="numbersign" unicode="#" horiz-adv-x="508" 
d="M473 403h-93l11 94q-75 -5 -81 -67l-3 -26h-72l2 34q0 54 -66 60l-10 -94l-93 -2q0 -70 61 -71h24l-8 -72h-24q-64 0 -76 -73l92 -1l-9 -93q76 6 80 69l4 24h72l-3 -34q0 -54 66 -60l11 94h93v6q0 65 -62 67h-24l9 73l24 -1q65 0 75 73zM299 331l-8 -73h-72l8 73h72z" />
    <glyph glyph-name="dollar" unicode="$" 
d="M317 114v200q0 33 -21 57h2q-31 31 -86 37l-1 283q28 -16 28 -54t4 -61t13 -36t24 -18.5t37 -7.5v126q0 31 -20 56h1q-30 30 -87 36v76q-8 -1 -18 -4t-18.5 -10.5t-15 -22t-7.5 -38.5q-13 -2 -20.5 -3t-15 -4.5t-19 -10.5t-33.5 -19h3q-22 -23 -22 -56v-162q0 -44 22 -66
h-3q30 -30 89 -39l1 -312q-31 17 -31 55q0 37 -3 58.5t-11.5 33t-24 15.5t-39.5 6v-115q0 -33 20 -56h-1q34 -32 90 -38v-84q35 3 46.5 17.5t11.5 51.5v15l19 3.5t17 5t20.5 10.5t29.5 19h-2q21 22 21 56zM239 116q0 -37 -27 -52v300q27 -15 27 -52v-196zM153 420
q-30 19 -30 60v157q0 37 29 54z" />
    <glyph glyph-name="percent" unicode="%" horiz-adv-x="831" 
d="M319 467v140v60q0 17 -5.5 31t-15.5 26h1q-6 10 -18 17t-27 12t-31.5 7.5t-31.5 2.5h-4q-2 -1 -5 -1t-5 1h-5q-19 0 -32 -3t-24.5 -8.5t-23 -12.5t-27.5 -15h2q-22 -23 -22 -57v-200q0 -34 22 -57h-2l12 -9q16 -11 44 -20t51 -9h19q23 0 46 6.5t41 18.5t29.5 29.5
t11.5 40.5zM796 86v141v60q0 33 -20 56h1q-6 9 -18 16.5t-26.5 12.5t-31 8t-31.5 3h-5q-2 -1 -4 -1q-4 0 -5 1h-5q-19 0 -32.5 -3.5t-25.5 -9t-23.5 -13t-26.5 -14.5h2q-21 -23 -21 -56l-1 -61l1 -140q0 -32 21 -56h-2q17 -17 45.5 -27.5t62.5 -10.5h19q69 0 107 38h-1
q20 25 20 56zM595 749q-18 5 -33 5q-42 0 -59 -42l-266 -736q8 -3 15.5 -4t15.5 -1q43 0 60 42zM241 469q0 -54 -59 -60q-59 6 -59 60v196q0 54 59 61q59 -8 59 -61v-196zM718 89q0 -56 -57 -60q-59 4 -59 60v195q0 55 59 62q57 -8 57 -62v-195z" />
    <glyph glyph-name="ampersand" unicode="&#x26;" horiz-adv-x="354" 
d="M319 -117v399q-76 -4 -78 -68v-115q0 -53 -59 -61q-59 7 -59 61v255q0 49 52 58h13q10 0 24.5 2t30 6.5t30 12.5t25.5 19q10 12 15.5 25.5t5.5 30.5v161q0 17 -5.5 31t-15.5 26h1q-14 21 -48.5 31.5t-72.5 8.5q-19 0 -33 -3.5t-26.5 -9t-24.5 -12.5l-27 -15
q-22 -23 -22 -57v-161q0 -33 22 -56h-2q5 -5 13 -11t16 -9q-10 -8 -17 -13t-10 -8q-22 -22 -22 -56v-259q0 -32 20 -57q24 -23 54 -31t53 -8h19q34 0 54 8v-66q0 -59 65 -59h9zM241 511q0 -55 -59 -61q-59 6 -59 61v157q0 53 59 60q59 -8 59 -60v-157z" />
    <glyph glyph-name="quotesingle" unicode="'" horiz-adv-x="158" 
d="M123 527l-1 49l1 113q0 63 -78 68v-162q0 -65 78 -68z" />
    <glyph glyph-name="parenleft" unicode="(" horiz-adv-x="258" 
d="M223 -126l-2 38q-6 -1 -12 -1.5t-13 -0.5q-73 0 -73 61v804q0 61 73 61q7 0 13 -0.5t12 -1.5v40h-50q-126 -6 -126 -96v-809q0 -92 126 -96h14h18t20 1z" />
    <glyph glyph-name="parenright" unicode=")" horiz-adv-x="258" 
d="M223 -31v809q0 90 -128 96h-50v-40q6 1 12.5 1.5t13.5 0.5q74 0 74 -61v-804q0 -61 -74 -61q-7 0 -13.5 0.5t-12.5 1.5v-38q9 -1 18 -1h18h14q128 4 128 96z" />
    <glyph glyph-name="asterisk" unicode="*" horiz-adv-x="369" 
d="M334 575l-43 24l-23 14l7 4q34 19 34 54q0 19 -13 48l-67 -39v9q0 63 -78 68v-77l-8 5q-17 10 -34 10q-36 0 -64 -45l67 -37l-8 -5q-34 -15 -34 -52q0 -21 13 -50l45 26l23 13v-9q0 -65 78 -68l-2 50l2 27l7 -5q19 -11 35 -11q35 0 63 46z" />
    <glyph glyph-name="plus" unicode="+" horiz-adv-x="493" 
d="M458 322h-169v99q0 66 -66 66h-8v-165h-102q-68 0 -68 -62v-9h170v-99q0 -66 70 -66h4v165h102q67 0 67 61v10z" />
    <glyph glyph-name="comma" unicode="," horiz-adv-x="206" 
d="M171 52q0 -14 -5 -26l-31 -120l-12 -48q-48 22 -50 65q0 12 3 24l13 49q-44 9 -44 56q0 32 18.5 49.5t46.5 17.5q61 0 61 -67z" />
    <glyph glyph-name="hyphen" unicode="-" horiz-adv-x="398" 
d="M363 319v-7q0 -56 -58 -56h-260v9q0 54 58 54h260z" />
    <glyph glyph-name="period" unicode="." horiz-adv-x="158" 
d="M123 -34q-78 4 -78 68v74q78 -3 78 -68v-74z" />
    <glyph glyph-name="slash" unicode="/" horiz-adv-x="438" 
d="M403 749l-267 -736q-17 -42 -60 -42q-17 0 -31 5l266 736q16 42 59 42q13 0 33 -5z" />
    <glyph glyph-name="zero" unicode="0" horiz-adv-x="353" 
d="M317 86v581q0 32 -20 57h1q-13 20 -45.5 29.5t-65.5 9.5q-4 -1 -5 -1.5t-6 1.5q-34 0 -61 -9t-48 -30q-22 -23 -22 -57v-581q0 -33 22 -56h-3q17 -17 45 -27.5t62 -10.5h20q69 0 106 38q20 25 20 56zM239 89q0 -56 -58 -60q-58 4 -58 60v576q0 54 58 61q58 -7 58 -61
v-576zM219 275v162q0 63 -78 68v-162q0 -64 78 -68z" />
    <glyph glyph-name="one" unicode="1" horiz-adv-x="226" 
d="M191 -12v767q-49 -2 -67 -29l-114 -103q30 -31 59 -31q24 0 44 19v-555q0 -65 78 -68z" />
    <glyph glyph-name="two" unicode="2" horiz-adv-x="361" 
d="M326 0h-270v283q0 19 7 36.5t22.5 30.5t40.5 20.5t62 7.5q53 9 53 60v235q0 52 -59 60q-59 -8 -59 -60v-46q0 -64 -78 -68v115q0 34 22 56q7 10 20 18t28.5 13t32.5 8t32 3q35 2 66 -8.5t53 -33.5h-2q22 -23 22 -56v-239q0 -33 -22 -56q-6 -10 -26 -20t-46 -15
q-22 -7 -39 -9.5t-28.5 -7t-17.5 -14.5t-6 -31v-209h123q65 0 69 -73z" />
    <glyph glyph-name="three" unicode="3" horiz-adv-x="338" 
d="M303 91q0 -24 -10.5 -42t-28.5 -29.5t-41 -17.5t-48 -6h-19q-30 0 -61 12t-46 27h2q-22 22 -22 56l1 100q78 -6 78 -69l-1 -28q0 -55 59 -60q59 5 59 60v216q0 49 -51 58h-51l2 38h41q59 6 59 61v195q0 55 -59 60q-59 -5 -59 -60v-46q0 -62 -78 -66v115q0 39 32 65
q21 15 46.5 22.5t67.5 7.5q15 0 31.5 -2.5t31.5 -8t27 -12.5t18 -16q9 -11 14.5 -25.5t5.5 -30.5v-201q0 -17 -5.5 -30.5t-15.5 -25.5q-12 -12 -27 -20q10 -6 16.5 -10.5t11.5 -9.5q9 -11 14.5 -25.5t5.5 -31.5v-220z" />
    <glyph glyph-name="four" unicode="4" horiz-adv-x="333" 
d="M330 291h-64v-295q-77 5 -77 69v226h-72q-79 0 -79 68v416q42 -4 60 -21t18 -62v-338h73v185q0 62 78 68v-253q32 0 47.5 -16.5t15.5 -46.5z" />
    <glyph glyph-name="five" unicode="5" horiz-adv-x="362" 
d="M327 762q-5 -74 -69 -74h-123v-237h57q35 0 64.5 -12t43.5 -26q9 -12 14.5 -26t5.5 -31v-268q0 -32 -22 -57q-15 -8 -26 -15.5t-23 -13t-27.5 -8.5t-38.5 -1q-27 -1 -45 0.5t-30 6t-21.5 12t-20.5 19.5q-20 26 -20 57v115q78 -6 78 -69v-44q0 -53 59 -61q59 8 59 61v264
q0 51 -52 60h-133v348h270z" />
    <glyph glyph-name="six" unicode="6" horiz-adv-x="356" 
d="M321 88q0 -35 -22 -57l-9 -9q-9 -8 -23.5 -13.5t-31 -9.5t-33.5 -5.5t-30 -1.5q-19 0 -33 1.5t-26 6t-23.5 12t-24.5 18.5q-20 26 -20 56v581q0 17 6.5 32.5t25.5 33.5q17 12 45.5 21t68.5 9q33 0 60.5 -9.5t47.5 -29.5q9 -11 14.5 -25.5t5.5 -31.5v-87q-78 3 -78 68v17
q0 53 -59 61q-59 -8 -59 -61v-222q20 5 35 6.5t36 1.5q35 0 57.5 -10t49.5 -28q20 -26 20 -57v-268zM243 306v48q0 53 -59 61q-59 -8 -59 -61v-264q0 -53 59 -61q55 7 58 60z" />
    <glyph glyph-name="seven" unicode="7" horiz-adv-x="294" 
d="M144 -2q-34 2 -49 14t-15 38q0 15 3 30l131 611h-156q-48 0 -48 41q0 12 4 23h211q67 0 67 -51v-13q0 -3 -1 -5z" />
    <glyph glyph-name="eight" unicode="8" horiz-adv-x="354" 
d="M319 88v219q0 17 -5.5 31t-14.5 26q-3 3 -12 9.5t-16 10.5q23 14 35.5 32.5t12.5 45.5v199q0 17 -5.5 31t-15.5 26h1q-13 20 -46 29.5t-66 9.5h-15q-19 0 -32 -3t-24.5 -8.5t-22.5 -12.5t-26 -15q-22 -23 -22 -57v-199q0 -35 22 -58h-2q5 -5 13 -10l16 -10
q-10 -6 -17 -11.5t-10 -8.5q-22 -23 -22 -57v-219q0 -32 20 -57q14 -11 27 -18t27 -12t31.5 -7t40.5 -2q20 0 34 1.5t25.5 6t22.5 12t25 19.5q10 12 15.5 26t5.5 31zM241 91q0 -53 -59 -61q-59 7 -59 61v215q0 51 52 60h14q52 -9 52 -60v-215zM241 463q0 -54 -59 -60
q-59 6 -59 60v197q0 53 59 60q59 -8 59 -60v-197z" />
    <glyph glyph-name="nine" unicode="9" horiz-adv-x="355" 
d="M320 86v581q0 32 -20 57q-5 6 -15.5 14.5t-25.5 15.5t-33 10t-38 -1q-5 -2 -10 0q-26 0 -58.5 -12t-52.5 -29q-22 -21 -22 -56v-268q0 -33 22 -56h-3q15 -20 45.5 -30t61.5 -10q21 0 36 2t35 7v-222q0 -56 -59 -60q-59 4 -59 60v18q0 63 -78 68v-89q0 -24 10.5 -41.5
t28 -29t40.5 -17.5t48 -6q45 0 78.5 11.5t46.5 26.5q22 23 22 56zM239 400q0 -54 -58 -60q-58 6 -58 60v265q0 52 58 60q58 -7 58 -60v-265z" />
    <glyph glyph-name="colon" unicode=":" horiz-adv-x="158" 
d="M123 -34v74q0 65 -78 68v-74q0 -64 78 -68zM123 415v73q0 64 -78 69v-75q0 -63 78 -67z" />
    <glyph glyph-name="semicolon" unicode=";" horiz-adv-x="206" 
d="M171 52q0 67 -61 67q-28 0 -46.5 -17.5t-18.5 -49.5q0 -47 44 -56l-13 -49q-3 -12 -3 -24q0 -43 50 -65l12 48l31 120q5 10 5 26zM149 410v74q0 62 -78 67v-73q0 -62 78 -68z" />
    <glyph glyph-name="less" unicode="&#x3c;" horiz-adv-x="508" 
d="M473 180q0 41 -43 50l-287 63l287 62q43 9 43 51q0 16 -6 34l-380 -82q-42 -12 -42 -65q0 -55 42 -64l380 -83q6 16 6 34z" />
    <glyph glyph-name="equal" unicode="=" horiz-adv-x="486" 
d="M451 170q-5 75 -69 75h-269q-62 0 -68 -75l287 2zM451 410h-406q6 -74 68 -74h269q64 0 69 74z" />
    <glyph glyph-name="greater" unicode="&#x3e;" horiz-adv-x="508" 
d="M473 293q0 53 -43 65l-379 82q-6 -18 -6 -34q0 -42 42 -51l287 -62l-287 -63q-42 -9 -42 -50q0 -18 6 -34l379 83q43 9 43 64z" />
    <glyph glyph-name="question" unicode="?" horiz-adv-x="323" 
d="M297 477v-2q1 -31 -14.5 -46.5t-35 -27t-35.5 -25t-16 -40.5v-75q0 -65 -79 -69v147q0 31 16 47t35 27.5t35 25t16 39.5v187q0 52 -59 60q-59 -8 -59 -60v-45q0 -63 -78 -69v115q0 42 33.5 69t93.5 27h19q24 0 47 -6t41 -18t29 -30t11 -42v-189zM195 74q0 -65 -78 -69v75
q0 62 78 68v-74z" />
    <glyph glyph-name="at" unicode="@" horiz-adv-x="632" 
d="M597 96v235q-78 -3 -78 -67v-166q0 -49 -54 -58h-127h-80q-30 0 -47 -0.5t-30 -0.5q-58 6 -58 59v479q0 55 61 61h130q59 -8 59 -60v-39q0 -50 -57 -58q-29 0 -54.5 -5.5t-44.5 -17t-30 -29.5t-11 -44v-121q0 -32 15.5 -51t36.5 -29t42.5 -13t33.5 -3q36 0 58 4.5
t39 13.5q16 -6 27.5 -9.5t22.5 -3.5v408q0 25 -11.5 43t-30 29.5t-41.5 17t-45 5.5h-152q-21 0 -43.5 -6t-41 -18t-30 -30t-11.5 -42v-484q0 -33 14 -51.5t33 -28.5t39.5 -12.5t34.5 -2.5h304q22 0 45 6t41 17.5t29.5 29.5t11.5 42zM373 264q0 -53 -62 -59q-56 6 -57 60v119
q0 27 11 38.5t28.5 16t38.5 5.5t41 7v-187z" />
    <glyph glyph-name="A" unicode="A" 
d="M317 0v673q0 25 -11 43t-30 29.5t-43 17t-50 5.5t-50.5 -5.5t-44 -17t-31.5 -29.5t-12 -43v-671q78 3 78 68v291h116v-293q0 -65 78 -68zM239 424h-116v246q0 56 58 60q58 -4 58 -60v-246z" />
    <glyph glyph-name="B" unicode="B" 
d="M317 96q0 -25 -10.5 -43t-28 -30t-40 -17.5t-47.5 -5.5h-70q-42 0 -59 21t-17 75v570q0 96 78 96h68q25 0 48 -6t40 -18t27.5 -30t10.5 -42v-199q0 -25 -10.5 -45t-33.5 -32q24 -15 34 -32t10 -42v-220zM239 97v216q0 21 -12.5 39.5t-32.5 18.5h-71v-334h47q69 0 69 60z
M239 468v197q0 18 -4.5 30t-17 18.5t-35 9t-59.5 2.5v-316h62q54 0 54 59z" />
    <glyph glyph-name="C" unicode="C" horiz-adv-x="348" 
d="M319 94q0 -43 -34.5 -68.5t-112.5 -25.5q-23 0 -45.5 4.5t-40.5 15.5t-29.5 29t-11.5 45v581q0 23 11 41.5t28.5 31t39.5 19.5t44 7h4q29 -1 56 -6t47.5 -17t32.5 -32t12 -51q0 -1 -0.5 -8.5l-0.5 -7.5v-92q-78 6 -78 68v45q0 53 -59 61q-59 -8 -59 -61v-576
q0 -55 59 -60q28 2 42.5 20.5t16.5 66.5q0 63 78 69v-99z" />
    <glyph glyph-name="D" unicode="D" 
d="M317 96q0 -34 -20 -57h1q-39 -39 -107 -39h-70q-42 0 -59 21t-17 75v570q0 96 78 96h68q68 0 107 -39h-1q20 -26 20 -57v-570zM239 97v568q0 18 -4.5 30t-17 18.5t-35 9t-59.5 2.5v-688h47q69 0 69 60z" />
    <glyph glyph-name="E" unicode="E" horiz-adv-x="330" 
d="M325 0v4q0 60 -59 60h-143v324h56h35t19.5 0.5t8.5 0.5q37 6 37 30q-8 1 -23 7l-31 12.5t-30.5 11.5t-23.5 5h-48v247h143q59 0 59 64h-202q-78 -6 -78 -69v-630q0 -65 78 -68v1h202z" />
    <glyph glyph-name="F" unicode="F" horiz-adv-x="325" 
d="M123 766h202q0 -29 -15 -46t-44 -17h-143v-246h119q37 -6 37 -32q0 -17 -9.5 -24.5t-28.5 -10.5h-118v-390q-38 5 -58 20.5t-20 47.5v630q0 64 78 69v-1z" />
    <glyph glyph-name="G" unicode="G" horiz-adv-x="355" 
d="M164 389h29q25 0 48 -6.5t40 -18.5t27.5 -29t10.5 -38v-203q0 -51 -39.5 -75t-108.5 -24q-24 0 -46.5 5.5t-40.5 17.5t-28.5 30t-10.5 43v581q0 25 12 44t31 31.5t42.5 18.5t46.5 6q69 0 103 -26.5t39 -94.5v-94q-78 6 -78 68v45q0 54 -59 62q-59 -8 -59 -62v-576
q0 -55 59 -60q60 4 60 60v198q0 55 -61 61h-16z" />
    <glyph glyph-name="H" unicode="H" 
d="M317 0v767q-78 -6 -78 -69v-247h-116v247q0 63 -78 69v-767q78 3 78 68v320h116v-320q0 -65 78 -68z" />
    <glyph glyph-name="I" unicode="I" horiz-adv-x="158" 
d="M123 65v699q-44 -3 -61 -21t-17 -62v-684q78 3 78 68z" />
    <glyph glyph-name="J" unicode="J" horiz-adv-x="340" 
d="M305 765q-78 -3 -78 -68v-602q0 -53 -59 -61q-60 7 -60 61v45q0 63 -79 68v-60v-29t1 -4v-7q0 -31 9.5 -52t26.5 -34t40.5 -19t50.5 -6q23 0 49 4t48 15t36.5 29.5t14.5 47.5v672z" />
    <glyph glyph-name="K" unicode="K" 
d="M317 -2v342q0 32 -20 57h1q-7 6 -14 10.5l-15 9.5q48 23 48 77v293q-78 -5 -78 -69v-222q0 -26 -16 -43.5t-42 -17.5h-58v281q0 63 -78 68v-783q78 4 78 68v329h61q26 0 40.5 -17.5t14.5 -42.5v-271q0 -64 78 -69z" />
    <glyph glyph-name="L" unicode="L" horiz-adv-x="339" 
d="M337 -2h-213q-79 0 -79 68v689q42 -3 60 -20.5t18 -62.5v-611h155q29 0 44 -16.5t15 -46.5z" />
    <glyph glyph-name="M" unicode="M" horiz-adv-x="548" 
d="M513 0v673q0 25 -11 43t-29 30t-41 17.5t-46 5.5q-40 0 -64 -7t-42 -18q-19 11 -41 17.5t-48 6.5q-25 0 -51 -3.5t-47 -14t-34.5 -29t-13.5 -48.5v-671q78 3 78 68v600q0 56 58 60q58 -4 58 -57v-611q0 -2 4 -11.5t10 -20t13 -19.5t13 -9h2q5 0 11.5 8.5t12 19.5t9 21
t3.5 13v606q0 55 59 60q59 -4 59 -60v-602q0 -65 78 -68z" />
    <glyph glyph-name="N" unicode="N" 
d="M317 0v673q0 24 -11.5 43t-31 32t-44 20t-49.5 7q-24 0 -48 -6.5t-43.5 -19.5t-32 -32t-12.5 -44v-671q78 3 78 68v600q0 56 58 60q58 -4 58 -60v-602q0 -65 78 -68z" />
    <glyph glyph-name="O" unicode="O" 
d="M317 94q0 -51 -39.5 -72.5t-106.5 -21.5q-23 0 -45.5 5.5t-40.5 17t-29 29t-11 42.5v581q0 26 12.5 44.5t31.5 30t42.5 17t46.5 5.5h9q25 -1 48.5 -6t41.5 -16.5t29 -29.5t11 -45v-581zM239 97v576q0 54 -58 61q-58 -7 -58 -61v-576q0 -56 58 -60q58 4 58 60z" />
    <glyph glyph-name="P" unicode="P" horiz-adv-x="347" 
d="M319 450q0 -45 -34.5 -70t-112.5 -25q-11 0 -23 3t-26 6v-303q0 -63 -78 -69v699q4 22 16.5 37.5t30.5 26t39 15.5t41 5q28 0 54.5 -5t47 -16t33 -29.5t12.5 -45.5v-229zM241 452v226q0 54 -59 60q-59 -6 -59 -60v-226q0 -54 59 -60q59 6 59 60z" />
    <glyph glyph-name="Q" unicode="Q" horiz-adv-x="355" 
d="M332 -60l-36 98h3q6 0 9.5 6t5.5 14.5t3 18t2 17.5v581q0 27 -11.5 45t-30 29t-42 16.5t-48.5 5.5q-3 -1 -5 -1h-4q-1 0 -6 1q-23 0 -45.5 -6t-40.5 -18t-29.5 -30t-11.5 -42v-581q0 -39 26 -67t85 -28q30 0 44 1t23 2l10 -28q17 -42 59 -42q16 0 40 8zM241 166
l-47 113.5l-31.5 77.5t-20 48l-11.5 25.5t-5.5 11t-2.5 2.5v229q0 54 59 61q59 -8 59 -61v-507zM207 42q-5 -2 -11.5 -3l-13.5 -2q-59 4 -59 60v151z" />
    <glyph glyph-name="R" unicode="R" horiz-adv-x="354" 
d="M319 2v286q0 27 -15 48t-38 30q25 11 39 32t14 48v229q0 26 -12 44.5t-31.5 30t-44 16.5t-49.5 5h-10q-21 0 -41.5 -5t-37.5 -15t-30 -26t-18 -38v-683q78 6 78 69v285q15 -4 28.5 -5.5t30.5 -1.5q29 -7 44 -22.5t15 -42.5v-216q0 -62 78 -68zM241 448q0 -54 -59 -60
q-59 6 -59 60v226q0 54 59 60q59 -6 59 -60v-226z" />
    <glyph glyph-name="S" unicode="S" 
d="M317 88v226q0 33 -21 57h2q-40 38 -117 38q-58 15 -58 71v186q0 61 58 61t58 -61q0 -38 4 -61t13 -36.5t24 -18.5t37 -6v124q0 32 -20 57h1q-40 38 -117 38q-20 0 -44 -4.5t-44.5 -16t-34 -29.5t-13.5 -45v-190q0 -38 14.5 -57.5t36 -29t46.5 -13.5t46.5 -10t36 -18
t14.5 -38v-223q0 -60 -58 -60q-26 0 -42 17t-16 43q0 37 -3 59t-11.5 33.5t-24 15.5t-39.5 6v-115q0 -49 38.5 -72t97.5 -23q23 0 46 4.5t41.5 15t32 29t16.5 46.5z" />
    <glyph glyph-name="T" unicode="T" horiz-adv-x="420" 
d="M418 766q-6 -78 -69 -78h-96v-623q0 -65 -78 -68v691h-95q-65 0 -68 78h406z" />
    <glyph glyph-name="U" unicode="U" 
d="M317 91v674q-78 -5 -78 -69v-602q0 -56 -58 -60q-58 4 -58 60v600q0 65 -78 68v-671q0 -25 11 -42.5t29 -29t40.5 -17t45.5 -5.5q67 0 106.5 21.5t39.5 72.5z" />
    <glyph glyph-name="V" unicode="V" horiz-adv-x="307" 
d="M305 754l-83 -712q-6 -43 -64 -43q-59 0 -63 43l-83 712l16 4t16 2q46 0 52 -42l62 -591l63 591q4 42 51 42q8 0 16.5 -2z" />
    <glyph glyph-name="W" unicode="W" horiz-adv-x="548" 
d="M513 94v674q-78 -5 -78 -69v-602q0 -56 -59 -60q-59 5 -59 60v602q0 3 -4 13t-10 21t-12.5 20t-11.5 9h-5q-5 0 -11 -9t-11.5 -20t-9 -20.5t-3.5 -10.5v-608q0 -53 -58 -57q-58 4 -58 60v600q0 65 -78 68v-671q0 -20 6.5 -37t21.5 -29.5t39 -20t59 -7.5h20q51 0 89 24
q36 -24 87 -24h19q22 0 45 6t41 18t29.5 29.5t11.5 40.5z" />
    <glyph glyph-name="X" unicode="X" 
d="M317 -3v331q0 33 -20 58h1l-14 11.5t-15 8.5q22 11 35 30t13 47v283q-78 -5 -78 -68v-212q0 -26 -16 -44t-42 -18t-42 18t-16 44v208q0 64 -78 69v-280q0 -53 48 -77q-26 -13 -37 -33.5t-11 -44.5v-328q78 4 78 68v259q0 60 58 60t58 -60v-261q0 -64 78 -69z" />
    <glyph glyph-name="Y" unicode="Y" 
d="M317 417q0 -42 -29 -65.5t-68 -28.5v-254q0 -65 -78 -69v319h-3q-19 0 -36 7.5t-30 21t-20.5 31.5t-7.5 38v348q78 -5 78 -68v-278q0 -54 58 -61q58 7 58 61v281q0 65 78 68v-351z" />
    <glyph glyph-name="Z" unicode="Z" horiz-adv-x="307" 
d="M294 0l-270 1l0.5 3t5 22.5l14 61.5l28 119.5l46.5 196.5l69 293h-99q-58 0 -58 54v10h260l-165 -696h110q30 0 44.5 -18t14.5 -47z" />
    <glyph glyph-name="bracketleft" unicode="[" horiz-adv-x="282" 
d="M247 -128v3q0 60 -59 60h-65v874h65q59 0 59 60v3l-124 2q-78 -6 -78 -69v-865q0 -30 19.5 -49t58.5 -19h124z" />
    <glyph glyph-name="backslash" unicode="\" horiz-adv-x="438" 
d="M403 -24q-15 -5 -32 -5q-44 0 -60 42l-266 736q8 2 15.5 3.5t15.5 1.5q43 0 60 -42z" />
    <glyph glyph-name="bracketright" unicode="]" horiz-adv-x="282" 
d="M247 -60v865q0 29 -19.5 48t-58.5 19h-124v-7q0 -56 58 -56h66v-874h-66q-58 0 -58 -56v-7h124q38 0 58 19t20 49z" />
    <glyph glyph-name="asciicircum" unicode="^" horiz-adv-x="320" 
d="M285 625l-40.5 65l-22 35t-10.5 16t-5 7q-17 14 -42 14q-13 0 -22.5 -4.5t-16.5 -10t-11 -10.5t-5 -6l-65 -103q26 -16 50 -16q32 0 52 32l18 27l18 -29q19 -32 53 -32q11 0 23 3.5t26 11.5z" />
    <glyph glyph-name="underscore" unicode="_" horiz-adv-x="434" 
d="M434 34h-421q6 -75 68 -75h285q65 0 68 75z" />
    <glyph glyph-name="grave" unicode="`" horiz-adv-x="255" 
d="M220 595l-25 49h1l-39 83q-23 48 -76 48q-17 0 -36 -6l64 -131q23 -49 75 -49q8 0 17 2t19 4z" />
    <glyph glyph-name="a" unicode="a" horiz-adv-x="356" 
d="M321 0h-4q-12 0 -45 14q-17 -9 -39 -13.5t-58 -4.5h-6q-23 0 -47 4t-45 24q-1 1 -6 5.5t-11 12.5t-10.5 20t-4.5 28v123q0 48 38 72t104 24q56 8 56 60v75q0 54 -59 62q-59 -8 -59 -62q0 -38 -19.5 -56t-58.5 -20v79q0 22 12.5 41t32.5 32.5t46 21t53 7.5q21 0 44 -6
t42 -18.5t31.5 -31.5t12.5 -46v-447zM243 92v186q-30 -7 -52.5 -10t-37 -8.5t-22 -16t-7.5 -33.5v-117q0 -56 58 -60q61 4 61 59z" />
    <glyph glyph-name="b" unicode="b" horiz-adv-x="357" 
d="M322 91q-2 -43 -34.5 -68.5t-111.5 -25.5q-10 0 -29 4t-46 12q-21 -18 -56 -19v757q78 -5 78 -68v-149q14 5 28.5 9t30.5 4h8q25 0 48.5 -6t42 -18.5t30 -31t11.5 -43.5v-357zM243 94v351q0 55 -58 62q-58 -7 -58 -62v-351q0 -56 58 -60q58 4 58 60z" />
    <glyph glyph-name="c" unicode="c" horiz-adv-x="354" 
d="M319 91q0 -15 -6 -31.5t-21.5 -30.5t-42 -23t-67.5 -9q-26 0 -56 5t-49 19l-5 4t-11 12t-11 21.5t-5 32.5v357q0 13 6.5 30t23 31.5t44.5 24.5t72 10q58 0 96 -30q15 -12 21.5 -29.5t8 -40t1 -50.5t1.5 -61q-78 4 -78 68v44q0 54 -59 62q-59 -8 -59 -62v-351
q0 -55 59 -60q56 5 59 60v27q0 63 78 69v-99z" />
    <glyph glyph-name="d" unicode="d" horiz-adv-x="360" 
d="M322 751q-77 -5 -77 -68v-149q-20 5 -33.5 7l-20.5 3h-19q-23 0 -45.5 -6t-40.5 -18t-29.5 -30t-11.5 -42v-357q0 -24 10.5 -41.5t28 -29.5t40.5 -17.5t48 -5.5q35 0 55.5 5.5t37.5 13.5q11 -10 27 -16t33 -6zM241 94q0 -55 -59 -60q-59 4 -59 60v351q0 55 59 62
q59 -8 59 -62v-351z" />
    <glyph glyph-name="e" unicode="e" horiz-adv-x="356" 
d="M321 325q0 -15 -6.5 -31.5t-23 -31t-45 -24t-71.5 -9.5q-13 0 -52 9v-144q0 -55 59 -60q59 5 59 60v18q0 63 78 68v-89q0 -15 -5.5 -31.5t-21.5 -30.5t-45 -23t-75 -9q-18 0 -40 3t-41.5 12.5t-32.5 28t-13 50.5v357q0 16 7 33t24 31t45 23t70 9q24 0 47.5 -5.5
t41.5 -17.5t29.5 -30.5t11.5 -43.5v-122zM241 327v118q-3 54 -57 60q-59 -6 -59 -60v-118q0 -54 59 -60q30 3 43.5 18.5t13.5 41.5z" />
    <glyph glyph-name="f" unicode="f" horiz-adv-x="325" 
d="M365 570q-78 4 -78 68v45q0 53 -59 61q-58 -7 -58 -61v-172h138q-3 -68 -68 -68h-70v-381q0 -65 -79 -68v449h-13q-62 0 -65 68h78v174q0 17 9 34.5t25.5 31.5t41 23t56.5 9q23 0 48 -4t46 -15t34.5 -30t13.5 -49v-115z" />
    <glyph glyph-name="g" unicode="g" horiz-adv-x="355" 
d="M320 -135v691q-12 0 -49 -14q-17 10 -42 14.5t-47 4.5q-26 0 -51 -7t-44 -20t-30.5 -30.5t-11.5 -38.5v-366q0 -32 12 -50.5t31 -28t41 -13t42 -4.5q21 0 36 1.5t35 6.5v-144q0 -54 -59 -61q-59 7 -59 61v9q0 65 -78 68v-79q0 -30 12.5 -48.5t31.5 -28.5t41 -14t42 -5h20
q20 0 42.5 5.5t41 17.5t31 30t12.5 43zM239 101q-1 -54 -57 -61q-58 7 -58 61v361q0 54 57 62q58 -7 58 -62v-361z" />
    <glyph glyph-name="h" unicode="h" horiz-adv-x="357" 
d="M322 0v448q0 24 -10 41.5t-27.5 30t-40.5 19t-49 7.5q-27 0 -42.5 -3t-29.5 -8v151q0 63 -78 68v-757q38 2 60 22t22 50v377q0 54 58 60q58 -6 58 -60v-378q0 -65 79 -68z" />
    <glyph glyph-name="i" unicode="i" horiz-adv-x="158" 
d="M123 65v386q0 63 -78 68v-523q78 4 78 69zM123 578v73q0 63 -78 69v-73q0 -65 78 -69z" />
    <glyph glyph-name="j" unicode="j" horiz-adv-x="164" 
d="M129 530v-653q0 -17 -9.5 -34t-26.5 -30.5t-40.5 -22t-51.5 -8.5h-19q-20 0 -42.5 4t-41.5 14.5t-31.5 29t-12.5 47.5v115q78 -5 78 -68v-44q0 -54 59 -62q60 7 60 62v582q0 65 78 68zM124 654q0 -65 -78 -69v73q0 63 78 69v-73z" />
    <glyph glyph-name="k" unicode="k" 
d="M317 -3q-78 4 -78 69v153q0 26 -14.5 43.5t-40.5 17.5h-61v-212q0 -64 -78 -68v793q78 -6 78 -69v-406h58q26 0 42 17t16 43v105q0 64 78 69v-176q0 -55 -48 -78q8 -3 15 -8.5l14 -11.5h-1q20 -23 20 -56v-225z" />
    <glyph glyph-name="l" unicode="l" horiz-adv-x="158" 
d="M123 63v630q0 63 -78 69v-767q78 3 78 68z" />
    <glyph glyph-name="m" unicode="m" horiz-adv-x="548" 
d="M513 0q-78 3 -78 68v378q0 54 -59 60q-59 -6 -59 -60v-378q0 -3 -4 -13t-10 -21t-12.5 -19.5t-11.5 -8.5h-5q-5 0 -11 9t-11.5 19.5t-9 20t-3.5 11.5v382q0 52 -58 58q-58 -6 -58 -60v-376q0 -65 -78 -68v446q0 22 11 41t29.5 32.5t43 21t50.5 7.5t54.5 -7.5t46.5 -23.5
q18 12 42 21t64 9q24 0 47 -7t40.5 -20t28.5 -32t11 -42v-448z" />
    <glyph glyph-name="n" unicode="n" 
d="M317 0q-78 3 -78 68v378q0 27 -14.5 43.5t-43.5 18.5q-29 -2 -43.5 -18.5t-14.5 -43.5v-376q0 -65 -78 -68v446q0 28 13.5 47t34.5 30t47 16t51 5t47.5 -6.5t40 -19t28 -31t10.5 -41.5v-448z" />
    <glyph glyph-name="o" unicode="o" horiz-adv-x="354" 
d="M319 91q0 -40 -31.5 -67t-107.5 -27q-20 0 -43.5 3t-44 13t-34 28.5t-13.5 49.5v357q0 15 6.5 31.5t23 31t43 24t67.5 9.5q21 0 45 -4t43.5 -14.5t32.5 -29t13 -48.5v-357zM241 94v351q0 54 -59 62q-59 -8 -59 -62v-351q0 -55 59 -60q59 5 59 60z" />
    <glyph glyph-name="p" unicode="p" horiz-adv-x="357" 
d="M322 96q0 -45 -34 -70.5t-112 -25.5q-14 0 -54 9v-168q0 -63 -77 -69v777q34 0 56 -19q18 9 39.5 13.5t54.5 4.5q24 -2 47 -7.5t41 -16.5t28.5 -28.5t10.5 -43.5v-356zM243 98v352q0 54 -58 60q-58 -6 -58 -60v-352q0 -56 58 -60q58 4 58 60z" />
    <glyph glyph-name="q" unicode="q" horiz-adv-x="357" 
d="M322 -231q-78 6 -78 69l1 168q-14 -5 -29.5 -7t-43.5 -2q-67 0 -107 39h2q-22 22 -22 57v356q0 17 7 34.5t23 31.5t41.5 23t63.5 9q20 0 41.5 -4.5t44.5 -15.5q21 18 56 19v-777zM241 95v352q0 54 -59 60q-59 -6 -59 -60v-352q0 -55 59 -60q59 5 59 60z" />
    <glyph glyph-name="r" unicode="r" horiz-adv-x="333" 
d="M317 333q-78 6 -78 69v45q0 54 -58 60q-58 -6 -58 -60v-381q0 -65 -78 -69v452q0 30 12 51t31 34.5t43 19.5t49 6q34 0 60 -9.5t43 -25.5t25.5 -35.5t8.5 -40.5v-116z" />
    <glyph glyph-name="s" unicode="s" horiz-adv-x="354" 
d="M317 94q-5 -29 -18 -47.5t-31.5 -29t-40.5 -14t-46 -3.5q-60 0 -98 23t-38 71v116q24 -1 39 -5t24 -15.5t12 -33.5t3 -59q0 -26 16 -43.5t42 -17.5t42 17.5t16 43.5v98q0 27 -15.5 42.5t-52.5 18.5q-25 0 -48 6.5t-40 18.5t-27.5 30t-10.5 41v93q0 27 14 45t34.5 29.5
t44 16t43.5 4.5q60 0 98 -23t38 -72v-115q-53 3 -68 33q-4 8 -4.5 31t-5 47.5t-17.5 43.5t-41 19q-58 0 -58 -62v-88q0 -31 15.5 -42.5t42.5 -17.5q80 -3 117 -40h-2q21 -24 21 -56v-104z" />
    <glyph glyph-name="t" unicode="t" horiz-adv-x="268" 
d="M268 514q-5 -69 -68 -69h-31v-381q0 -65 -79 -68v449h-13q-62 0 -65 68h78v187q78 -5 78 -68v-118h100z" />
    <glyph glyph-name="u" unicode="u" 
d="M317 91q0 -43 -33.5 -68.5t-112.5 -25.5q-24 0 -47 6t-40.5 17.5t-28 29t-10.5 41.5v447q78 -5 78 -69v-375q0 -56 58 -60q58 4 58 60v378q0 65 78 68v-449z" />
    <glyph glyph-name="v" unicode="v" horiz-adv-x="309" 
d="M306 539l-16.5 4t-16.5 2q-43 0 -51 -42l-63 -376l-62 376q-8 42 -52 42q-8 0 -16 -2l-16 -4l83 -497q4 -43 63 -43q58 0 64 43z" />
    <glyph glyph-name="w" unicode="w" horiz-adv-x="548" 
d="M513 91v449q-78 -3 -78 -68v-378q0 -56 -59 -60q-59 5 -59 60v378q0 3 -4 13t-10 21t-12.5 19.5t-11.5 8.5h-5q-5 0 -11 -9t-11 -19.5t-9 -20.5t-4 -11v-383q0 -53 -58 -57q-58 4 -58 60v375q0 64 -78 69v-447q0 -23 10.5 -40.5t28 -29.5t40 -18t47.5 -6q42 0 66 6t43 18
q36 -24 87 -24h19q26 0 49 6t40.5 17.5t27.5 29t10 41.5z" />
    <glyph glyph-name="x" unicode="x" 
d="M317 -6v224q0 53 -48 78q22 11 35 30t13 47v175q-78 -3 -78 -68v-105q0 -26 -16 -43.5t-42 -17.5t-42 17.5t-16 43.5v102q0 64 -78 69v-173q0 -29 12.5 -47t35.5 -30q-26 -13 -37 -33.5t-11 -44.5v-221q78 4 78 69v151q0 60 58 60t58 -60v-155q0 -63 78 -68z" />
    <glyph glyph-name="y" unicode="y" horiz-adv-x="353" 
d="M317 -139v-10q0 -25 -11 -41.5t-28 -26.5t-39 -14.5t-43 -4.5q-44 0 -75 7t-57 33h3q-22 22 -22 57v79q39 -2 58.5 -20t19.5 -57q0 -54 58 -61q58 7 58 61v157q-12 -3 -26.5 -8.5t-41.5 -5.5q-24 0 -46.5 6t-40 18t-28.5 30t-11 42v445q78 -3 78 -68v-376q0 -53 58 -60
q58 7 58 60v379q0 64 78 69v-690z" />
    <glyph glyph-name="z" unicode="z" horiz-adv-x="311" 
d="M294 0h-270h-1v1l168 463h-107q-58 0 -58 54v10h268l-169 -464h110q30 0 44.5 -17.5t14.5 -46.5z" />
    <glyph glyph-name="braceleft" unicode="{" horiz-adv-x="328" 
d="M293 -137v40l-12 -2t-13 -1q-73 0 -73 60v329q0 59 -30 79q31 22 31 80l-1 327q0 61 73 61q7 0 13 -0.5t12 -1.5v40h-50q-126 -6 -126 -96v-329q0 -23 -2 -35t-7 -17.5t-14 -6.5t-23 -1h-26v-41h26q13 0 22 -1t14 -7t7.5 -18t2.5 -34v-329q0 -90 126 -96h50z" />
    <glyph glyph-name="bar" unicode="|" horiz-adv-x="158" 
d="M123 -67v932q-44 -2 -61 -20.5t-17 -62.5v-918q78 4 78 69z" />
    <glyph glyph-name="braceright" unicode="}" horiz-adv-x="328" 
d="M293 348v41h-26q-14 0 -23 1t-14 7t-7 18t-2 34v329q0 90 -127 96h-49v-40q5 1 11.5 1.5t13.5 0.5q73 0 73 -61v-327q0 -59 30 -80q-30 -20 -30 -79v-329q0 -60 -73 -60q-7 0 -13.5 1t-11.5 2v-40h49q127 6 127 96v329q0 22 2 34t7.5 18t14 7t22.5 1h26z" />
    <glyph glyph-name="asciitilde" unicode="~" horiz-adv-x="432" 
d="M397 676l-18 8q-14 -34 -29 -52t-37 -18q-13 0 -30 10l-84 42q-36 17 -56 17q-24 0 -51 -27.5t-47 -79.5l14 -10q13 26 21.5 39.5t22.5 13.5q6 0 42 -17l86 -40q22 -11 42 -11q68 0 124 125z" />
    <glyph glyph-name="quotesinglbase" unicode="&#x201a;" horiz-adv-x="206" 
d="M171 52q0 67 -61 67q-28 0 -46.5 -17.5t-18.5 -49.5q0 -47 44 -56l-13 -49q-3 -12 -3 -24q1 -42 50 -65l12 48l31 120q5 10 5 26z" />
    <glyph glyph-name="florin" unicode="&#x192;" horiz-adv-x="355" 
d="M405 678q0 27 -10 45.5t-26.5 30t-38.5 16t-46 4.5h-10q-25 0 -49.5 -5.5t-44 -17.5t-33 -30t-16.5 -43l-33 -290h-80v-10q0 -59 58 -59h13l-51 -452q-6 -55 -65 -61q-53 6 -53 52q2 21 3.5 33t2 18t1 8t0.5 4q0 53 -72 59l-12 -93q0 -23 1 -37.5t3 -24t6.5 -15.5
t12.5 -10q17 -15 38 -24.5t47 -9.5h7q21 1 47 3.5t49.5 12.5t40.5 29t21 53l52 455h70q62 0 76 69h-138l32 288q6 53 66 61q53 -8 53 -51q0 -1 -1 -3.5t-2.5 -9t-2.5 -19t-1 -34.5q0 -52 70 -57z" />
    <glyph glyph-name="quotedblbase" unicode="&#x201e;" horiz-adv-x="391" 
d="M356 52q0 67 -60 67q-28 0 -47 -17.5t-19 -49.5q0 -47 45 -56l-13 -49q-3 -12 -3 -24q0 -43 49 -65l44 168q4 11 4 26zM171 52q0 67 -61 67q-28 0 -46.5 -17.5t-18.5 -49.5q0 -47 44 -56l-13 -49q-3 -12 -3 -24q1 -42 50 -65l43 168q5 10 5 26z" />
    <glyph glyph-name="ellipsis" unicode="&#x2026;" horiz-adv-x="645" 
d="M123 -34v74q0 65 -78 68v-74q0 -30 19.5 -49t58.5 -19zM610 -34v74q0 65 -78 68v-74q0 -30 20 -49t58 -19zM367 -34v74q0 65 -78 68v-74q0 -64 78 -68z" />
    <glyph glyph-name="dagger" unicode="&#x2020;" horiz-adv-x="368" 
d="M333 571h-106v145q-42 -3 -60 -21.5t-18 -60.5v-63h-104q6 -73 68 -73h36v-558q78 3 78 68v490h38q65 0 68 73z" />
    <glyph glyph-name="daggerdbl" unicode="&#x2021;" horiz-adv-x="368" 
d="M333 50q-3 72 -68 72h-38v376h38q65 0 68 73h-106v145q-42 -3 -60 -21.5t-18 -60.5v-63h-104q6 -73 68 -73h36v-376h-36q-62 0 -68 -73h104v-109q78 3 78 68v42h106z" />
    <glyph glyph-name="circumflex" unicode="&#x2c6;" horiz-adv-x="320" 
d="M285 625l-65 105q-2 5 -5 8l-6 6l-2 4q-17 14 -42 14q-13 0 -22.5 -4.5t-16.5 -10t-11 -10.5t-5 -6l-43 -70l-22 -33q26 -16 50 -16q32 0 52 32l18 27l18 -29q19 -32 53 -32q11 0 23 3.5t26 11.5z" />
    <glyph glyph-name="perthousand" unicode="&#x2030;" horiz-adv-x="1076" 
d="M1041 86v141v60q0 23 -10.5 41t-28 30t-40.5 18.5t-48 6.5h-5q-1 -1 -5 -1q-3 0 -5 1h-4q-19 0 -33 -3.5t-25.5 -9t-23 -13t-26.5 -14.5h2q-22 -24 -22 -56l-1 -61l1 -140q0 -31 22 -56h-2q6 -8 18.5 -15t27.5 -12t31.5 -8t30.5 -3h19q59 0 96 28q31 27 31 66zM319 467
v140v60q0 17 -5.5 31t-15.5 26h1q-6 10 -18 17t-27 12t-31.5 7.5t-31.5 2.5h-4q-2 -1 -5 -1t-5 1h-5q-19 0 -32 -3t-24.5 -8.5t-23 -12.5t-27.5 -15h2q-22 -23 -22 -57v-200q0 -34 22 -57h-2l12 -9q16 -11 44 -20t51 -9h19q23 0 46 6.5t41 18.5t29.5 29.5t11.5 40.5zM718 86
v141v60q0 33 -20 56h1q-6 9 -18 16.5t-26.5 12.5t-31 8t-31.5 3h-5q-2 -1 -4 -1q-4 0 -5 1h-6q-31 0 -59.5 -10.5t-47.5 -29.5h2q-21 -23 -21 -56l-1 -61l1 -140q0 -32 21 -56h-2q17 -17 45.5 -27.5t61.5 -10.5h20q69 0 107 38h-1q20 25 20 56zM556 749q-18 5 -32 5
q-43 0 -60 -42l-267 -736q8 -3 16 -4t16 -1q44 0 61 42zM963 89q0 -56 -59 -60q-59 5 -59 60v195q0 54 59 62q59 -7 59 -62v-195zM241 469q0 -54 -59 -60q-59 6 -59 60v196q0 54 59 61q59 -8 59 -61v-196zM640 89q0 -56 -57 -60q-59 4 -59 60v195q0 55 59 62q57 -8 57 -62
v-195z" />
    <glyph glyph-name="Scaron" unicode="&#x160;" 
d="M317 85v229q0 33 -21 57h2q-40 38 -115 38h-2q-58 15 -58 71v186q0 61 58 61t58 -61q0 -38 4 -61t13 -36.5t24 -18.5t37 -6v124q0 32 -20 57h1q-40 38 -117 38h-30t-22 -3.5t-25.5 -11.5t-39.5 -23h3q-22 -23 -22 -57v-190q0 -44 22 -66h-3q16 -14 45.5 -26.5t61.5 -12.5
h10q58 -7 58 -61v-226q0 -60 -58 -60q-26 0 -42 17t-16 43q0 37 -3 59t-11.5 33.5t-24 15.5t-39.5 6v-115q0 -33 20 -56h-1q39 -39 117 -39q20 0 32.5 0.5t23.5 4t24.5 11.5t36.5 23h-2q21 22 21 56zM301 931q-29 16 -52 16q-30 0 -52 -31l-18 -32l-18 29q-20 33 -51 33
q-25 0 -51 -16l65 -104q12 -18 25 -24t30 -6q29 0 42 14l14 17l44 69z" />
    <glyph glyph-name="guilsinglleft" unicode="&#x2039;" horiz-adv-x="285" 
d="M237 438l-161 -107q-10 -5 -13 -11l-4 -3q-14 -14 -14 -42q0 -11 4 -21t9.5 -17t10 -11.5t6.5 -4.5l122 -84l36 -22q16 26 16 49q0 32 -32 53l-83 58l80 61q36 27 36 59q0 17 -13 43z" />
    <glyph glyph-name="OE" unicode="&#x152;" horiz-adv-x="531" 
d="M519 -1v3q0 60 -59 60h-144v11q1 4 1 7v6v300h50q34 0 55 1t32.5 4.5t15 9.5t3.5 17v2q-8 0 -22.5 5.5l-30.5 12l-30.5 12t-22.5 5.5h-50l1 151h-1v1v95h143q59 0 59 59v3h-202q-35 -1 -55 -15q-31 14 -71 14h-4q-2 -1 -6 -1h-2q-1 0 -3 1h-5q-55 0 -95 -30
q-10 -8 -12 -9h3q-22 -23 -22 -57v-581q0 -33 22 -56h-3q17 -17 45 -27.5t62 -10.5h20q46 0 78 18q11 -5 22.5 -7.5t25.5 -3.5h202zM181 29q-58 4 -58 60v576q0 54 58 61q55 -7 58 -56v-587q-3 -50 -58 -54z" />
    <glyph glyph-name="quoteleft" unicode="&#x2018;" horiz-adv-x="206" 
d="M171 551q0 47 -46 56l14 49q3 13 3 24q0 43 -50 64l-12 -48l-30 -120q-5 -8 -5 -25q0 -67 61 -67q28 0 46.5 17.5t18.5 49.5z" />
    <glyph glyph-name="quoteright" unicode="&#x2019;" horiz-adv-x="206" 
d="M171 677q0 67 -61 67q-28 0 -46.5 -17.5t-18.5 -49.5q0 -46 44 -55l-13 -51q-3 -12 -3 -23q2 -43 50 -64l12 48l31 120q5 9 5 25z" />
    <glyph glyph-name="quotedblleft" unicode="&#x201c;" horiz-adv-x="372" 
d="M337 551q0 47 -46 56l14 49q3 13 3 24q0 43 -49 64l-14 -48l-30 -120q-4 -8 -4 -25q0 -67 61 -67q28 0 46.5 17.5t18.5 49.5zM171 551q0 47 -46 56l14 49q3 13 3 24q0 43 -50 64l-12 -48l-30 -120q-5 -8 -5 -25q0 -67 61 -67q28 0 46.5 17.5t18.5 49.5z" />
    <glyph glyph-name="quotedblright" unicode="&#x201d;" horiz-adv-x="391" 
d="M356 677q0 67 -60 67q-28 0 -47 -17.5t-19 -49.5q0 -46 45 -55l-13 -51q-3 -11 -3 -23q0 -43 49 -64l13 48l31 120q4 9 4 25zM171 677q0 67 -61 67q-28 0 -46.5 -17.5t-18.5 -49.5q0 -46 44 -55l-13 -51q-3 -12 -3 -23q2 -43 50 -64l12 48l31 120q5 9 5 25z" />
    <glyph glyph-name="bullet" unicode="&#x2022;" horiz-adv-x="333" 
d="M298 359h-71q-28 51 -124 56v-69q-52 -30 -58 -114h74q31 -45 123 -51l-1 64q53 29 57 114z" />
    <glyph glyph-name="endash" unicode="&#x2013;" horiz-adv-x="506" 
d="M471 329h-368q-58 0 -58 -63v-10h367q59 0 59 64v9z" />
    <glyph glyph-name="emdash" unicode="&#x2014;" horiz-adv-x="672" 
d="M637 329h-534q-58 0 -58 -63v-10h533q59 0 59 64v9z" />
    <glyph glyph-name="tilde" unicode="&#x2dc;" horiz-adv-x="381" 
d="M346 678l-18 8q-2 -12 -7.5 -22.5t-12.5 -18t-14.5 -12t-13.5 -4.5q-11 0 -39 14l-45 21t-29.5 12.5t-18.5 6t-12 1.5q-23 0 -47 -26.5t-44 -77.5l14 -9l12 24q13 27 27 27l43 -20l49 -20q31 -16 52 -16q32 0 53.5 29.5t50.5 82.5z" />
    <glyph glyph-name="trademark" unicode="&#x2122;" horiz-adv-x="538" 
d="M503 350v359q0 16 -8 28h1q-15 11 -28 18t-36 7h-11q-25 0 -46 -13q-23 13 -48 13h-11q-39 0 -64 -25h1q-3 -7 -5 -13.5t-2 -14.5v-357q47 2 47 38v317q0 25 28 31q30 -6 30 -29v-321q0 -3 2.5 -9t6 -12t7 -10t5.5 -4q3 0 7.5 4t8.5 10t6.5 12.5t2.5 9.5v318q0 25 29 31
q29 -6 29 -31v-318q0 -36 48 -39zM240 760h-223q2 -46 38 -46h51v-366q47 3 47 40v326h48q36 0 39 46z" />
    <glyph glyph-name="scaron" unicode="&#x161;" 
d="M317 92v104q0 32 -21 56h2q-40 38 -115 38l-2 2q-58 12 -58 60v88q0 62 58 62q29 0 41.5 -19t17 -43.5t5 -47.5t4.5 -31q15 -30 68 -33v115q0 33 -20 56h1q-39 39 -117 39q-19 0 -30 -0.5t-22 -4t-25.5 -11.5t-39.5 -23h3q-22 -22 -22 -56v-93q0 -35 22 -56h-3
q16 -16 46.5 -28t60.5 -12h11l-1 -1q58 -4 58 -60v-98q0 -26 -16 -43.5t-42 -17.5t-42 17.5t-16 43.5q0 37 -3 59t-12 33.5t-24 15.5t-39 5v-116q0 -31 20 -56h-1q38 -38 117 -38q18 0 30.5 1t24.5 4.5t26 11t36 21.5h-2q21 24 21 56zM304 718q-29 15 -50 15q-32 0 -52 -32
l-19 -30l-18 27q-20 33 -52 33q-22 0 -50 -16l66 -104q11 -17 22.5 -23.5t31.5 -6.5q26 0 42 14l2 3q7 7 11 15l45 69z" />
    <glyph glyph-name="guilsinglright" unicode="&#x203a;" horiz-adv-x="285" 
d="M238 238q12 12 12 37q0 18 -7.5 33t-24.5 23l-161 107q-12 -24 -12 -43q0 -32 36 -59l79 -61l-81 -58q-33 -21 -33 -53q0 -23 16 -49l157 106l10.5 9t8.5 8z" />
    <glyph glyph-name="oe" unicode="&#x153;" horiz-adv-x="550" 
d="M515 320v122q0 35 -21 56h2q-27 21 -60.5 30t-67.5 11q-49 0 -88 -25q-39 25 -89 25h-4q-2 -1 -5 -1t-5 1h-5q-19 0 -32 -3.5t-24.5 -9t-23 -12.5t-27.5 -15h2q-22 -22 -22 -56v-357q0 -33 22 -56h-2q17 -17 46 -27.5t61 -10.5h19q51 0 89 24q14 -10 39.5 -17t48.5 -7h19
q24 0 47 5.5t40.5 17t28.5 29t11 42.5v89q-78 -5 -78 -68v-18q0 -56 -59 -60q-58 4 -58 60v144q39 -9 50 -9h20q38 0 62.5 9.5t38.5 24t19.5 31t5.5 31.5zM241 86q0 -52 -59 -57q-59 4 -59 60v351q0 55 59 62q59 -8 59 -59l-2 -61h2v-296zM437 322q0 -54 -58 -60
q-58 6 -58 60v118q0 54 58 60q55 -6 57 -60l1 -70v-48z" />
    <glyph glyph-name="Ydieresis" unicode="&#x178;" 
d="M317 406v351q-78 -3 -78 -68v-281q0 -54 -58 -61q-58 7 -58 61v278q0 63 -78 68v-348q0 -34 22 -57h-3q16 -12 32.5 -21t42.5 -14l3 -1v-206v-118q78 4 78 69v254q22 4 43 13.5t35 23.5h-1q20 25 20 57zM284 803v74q0 64 -78 69v-75q0 -31 19.5 -49.5t58.5 -18.5z
M157 803v74q0 64 -78 69v-75q0 -65 78 -68z" />
    <glyph glyph-name="exclamdown" unicode="&#xa1;" horiz-adv-x="158" 
d="M123 -60v508q-78 -5 -78 -69v-523q42 4 60 21.5t18 62.5zM123 545l-1 24l1 49q-78 -3 -78 -67v-75q78 6 78 69z" />
    <glyph glyph-name="cent" unicode="&#xa2;" horiz-adv-x="354" 
d="M319 86v99q-78 -6 -78 -69l1 -20l-1 -7q-3 -38 -30 -53v457q30 -14 30 -53v-44q0 -64 78 -68v93v22q0 32 -21 56h1q-4 7 -13.5 13.5t-22 12t-26.5 9t-26 4.5v106q-35 -3 -48.5 -21.5t-13.5 -62.5v-24q-14 -2 -24.5 -5.5t-19.5 -8.5t-18.5 -11t-21.5 -12h2
q-22 -22 -22 -56v-357q0 -33 22 -56h-2q14 -14 34.5 -22.5t49.5 -14.5v-82q62 5 62 71v10q45 5 76.5 28.5t31.5 65.5zM149 38q-26 16 -26 51v351q0 36 26 52v-454z" />
    <glyph glyph-name="sterling" unicode="&#xa3;" horiz-adv-x="432" 
d="M397 574v115q0 32 -21 56h1q-13 20 -45.5 30t-66.5 10q-2 -1 -6 -1q-5 0 -9 1q-37 0 -61.5 -9.5t-39 -23.5t-20.5 -31t-6 -32v-262l-78 -1q3 -67 65 -67h13v-360l272 1q-5 75 -68 75h-125v236h59q32 0 55.5 18t23.5 50v3h-75q-37 0 -63 -24l-1 67h58q34 0 57 18t23 50v3
h-76q-42 0 -62 -23l1 214q0 54 58 61q59 -8 59 -61v-45q0 -64 78 -68z" />
    <glyph glyph-name="currency" unicode="&#xa4;" horiz-adv-x="396" 
d="M360 86v99q-78 -6 -78 -69v-27q-1 -55 -58 -60q-59 4 -59 60v182h149q-4 73 -69 73h-80v64h119q65 0 68 73h-187v184q0 54 59 61q58 -7 58 -61v-45q0 -62 78 -68v115q0 26 -11 44.5t-29 29.5t-41 16.5t-46 5.5h-13q-18 0 -41 -3.5t-43.5 -14t-34.5 -29.5t-14 -49v-186
h-72q4 -73 68 -73h4v-64h-33q-62 0 -68 -73h101v-185q0 -25 11 -43t29 -29t41 -16.5t46 -5.5q66 0 106 21.5t40 72.5z" />
    <glyph glyph-name="yen" unicode="&#xa5;" horiz-adv-x="355" 
d="M320 474v283q-78 -3 -78 -68v-213q0 -54 -59 -61q-59 7 -59 61v210q0 63 -78 68v-280q0 -34 22 -56h-1q9 -12 29.5 -21t43.5 -14l5 -1v-57h-100q6 -74 68 -74h32v-72h-32q-62 0 -68 -75h98l2 -115q78 5 78 69v48l91 -2q-5 75 -69 75h-22v72h22q64 0 69 74l-91 -1v56
q26 4 42 14.5l36 23.5h-2q21 22 21 56z" />
    <glyph glyph-name="brokenbar" unicode="&#xa6;" horiz-adv-x="158" 
d="M123 389v278q0 63 -78 69v-416q78 4 78 69zM123 -128v396q-78 -6 -78 -69v-259q0 -65 78 -68z" />
    <glyph glyph-name="section" unicode="&#xa7;" 
d="M317 5v92q0 34 -21 57h2q-12 12 -30 21l14.5 8t15.5 9h-2q19 19 21 48v86q0 32 -20 57h1q-39 37 -111 37h-14q-50 15 -50 59v89q0 61 58 61q19 0 31 -9t18.5 -23t9 -30.5t3.5 -32t2 -28.5t4 -18q15 -30 68 -33v115q0 33 -20 56h1q-38 39 -117 39q-20 0 -43.5 -5t-44 -16
t-34.5 -29t-14 -45v-92q0 -54 49 -78q-23 -14 -35 -27.5t-14 -37.5v-87q0 -31 20 -56h-1q41 -38 117 -38h8q50 -13 50 -58v-89q0 -61 -58 -61t-58 61q0 37 -4 58.5t-13 33.5t-24 16t-37 5v-115q0 -32 20 -57h-1q38 -38 117 -38q18 0 30.5 1t24 5t25.5 11.5l37 20.5h-2
q21 24 21 57zM239 251q0 -45 -39 -58l-19 1q-58 6 -58 60v70q0 45 40 58l18 -2q58 -6 58 -60v-69z" />
    <glyph glyph-name="dieresis" unicode="&#xa8;" horiz-adv-x="284" 
d="M249 662v75q0 63 -78 68v-74q0 -31 19.5 -50t58.5 -19zM123 662v75q0 63 -78 68v-74q0 -65 78 -69z" />
    <glyph glyph-name="copyright" unicode="&#xa9;" horiz-adv-x="619" 
d="M583 103l1 342h-1v1v56q0 31 -47 52h2q-42 20 -97.5 29t-105.5 9h-44q-37 0 -80 -7t-80 -19t-61.5 -28.5t-24.5 -35.5v-399q0 -25 23.5 -41.5t54 -26t58.5 -13.5t37 -4q22 -2 40 -3t33 -1h44q43 0 86.5 6.5t79 18.5t58.5 28t24 36zM475 106q0 -49 -161 -57
q-161 8 -161 57v394q0 48 161 56q161 -8 161 -56v-394zM412 160v66q-55 -4 -55 -47v-18q-1 -34 -36 -37q-36 4 -36 36v278q0 33 36 36q36 -3 36 -36v-29q0 -44 55 -47v77q0 20 -11 34h2q-31 31 -76 31h-4q-1 -1 -2 -1q-1 1 -4 1h-2q-24 0 -40.5 -7t-26.5 -17.5t-14 -21.5
t-4 -19v-279q0 -24 11 -35h-3q16 -14 31.5 -22t45.5 -8h12q14 0 29 3t27.5 10.5t20.5 20t8 31.5z" />
    <glyph glyph-name="ordfeminine" unicode="&#xaa;" horiz-adv-x="253" 
d="M218 408v288q0 21 -16 38l-2 3q-26 19 -61 19h-3q-1 -1 -3 -1q-3 0 -4 1h-4q-35 0 -60 -19l-3 -3q-17 -19 -17 -38v-48q47 2 47 42v5q0 36 41 42q39 -6 39 -42v-49q0 -37 -38 -42h-10q-35 0 -59 -18l-4 -4q-16 -16 -16 -37v-81q0 -21 16 -38l4 -2q16 -14 33 -17t27 -3h14
q25 0 50 14q18 -8 29 -10zM167 583v-117q0 -33 -36 -36q-34 3 -34 37l-2 75q0 32 34 38h10q14 0 28 3z" />
    <glyph glyph-name="guillemotleft" unicode="&#xab;" horiz-adv-x="471" 
d="M237 438l-161 -107q-10 -5 -13 -11l-4 -3q-14 -14 -14 -42q0 -11 4 -21t9.5 -17t10 -11.5t6.5 -4.5l122 -84l36 -22q16 26 16 49q0 32 -32 53l-83 58l80 61q36 27 36 59q0 17 -13 43zM422 438l-160 -107q-10 -5 -13 -11l-5 -3q-14 -14 -14 -42q0 -11 4.5 -21t10 -17
t10.5 -11.5l5 -4.5l123 -84l35 -22q16 26 16 49q0 32 -33 53l-81 58l80 61q36 27 36 59q0 18 -14 43z" />
    <glyph glyph-name="logicalnot" unicode="&#xac;" horiz-adv-x="602" 
d="M567 204v114q0 80 -68 80h-454q3 -43 21 -60.5t62 -17.5h377v-57q0 -59 55 -59h7z" />
    <glyph glyph-name="registered" unicode="&#xae;" horiz-adv-x="619" 
d="M583 103l1 342h-1v1v56q0 31 -47 52h2q-42 20 -97.5 29t-105.5 9h-10q-3 -2 -11 -2h-4q-2 0 -7 2h-12q-49 0 -100 -10.5t-103 -27.5h5q-48 -21 -48 -52v-399q0 -32 48 -53h-5q36 -15 67 -22.5t56.5 -10.5t45.5 -3h34h44q22 0 53.5 2.5t62 7t55 11.5t32.5 15h-2
q47 21 47 53zM475 106q0 -49 -161 -57q-161 8 -161 57v394q0 48 161 56q161 -8 161 -56v-394zM404 98v150q0 21 -12 35h5q-9 5 -15.5 9t-10.5 7q10 4 23 18h-1q11 14 11 35v57q3 0 3 1t-3 4v37q0 19 -11 35h1q-30 30 -75 30h-4q-1 -1 -4 -1h-1l-1 1h-2q-32 0 -80 -30h5
q-8 -10 -11 -24h-1l1 -49l-2 -3q0 -1 2 -1l-1 -25v-284q55 3 55 46v144q21 -3 32 -3l3 -3q37 -4 37 -37v-102q0 -42 57 -47zM347 352q0 -32 -36 -36q-34 5 -34 36v98q0 32 34 37q36 -5 36 -37v-98z" />
    <glyph glyph-name="macron" unicode="&#xaf;" horiz-adv-x="349" 
d="M314 895h-269q6 -73 68 -73h132q65 0 69 73z" />
    <glyph glyph-name="degree" unicode="&#xb0;" horiz-adv-x="206" 
d="M171 647v12q0 37 -7.5 60.5t-17.5 23.5h-77q-9 -11 -14 -20t-7 -18t-2.5 -20t-0.5 -26v-12q0 -15 1.5 -30t4.5 -27t7.5 -19.5t10.5 -7.5h12q0 -3 1 -3l0.5 0.5l2.5 2.5h61q5 0 9 5l4 6q3 8 4 10l1 2v1q4 11 5.5 26.5t1.5 33.5zM155 653q0 -30 -9 -30h-77q-7 0 -10 30
q3 30 10 30h77q9 0 9 -30z" />
    <glyph glyph-name="plusminus" unicode="&#xb1;" horiz-adv-x="493" 
d="M458 322h-169v99q0 66 -66 66h-8v-165h-102q-68 0 -68 -62v-9h170v-99q0 -66 70 -66h4v165h102q67 0 67 61v10zM452 -7q-5 72 -67 72h-270q-63 0 -69 -73l288 1h118z" />
    <glyph glyph-name="twosuperior" unicode="&#xb2;" horiz-adv-x="271" 
d="M236 260q-3 53 -48 53h-77v133q0 32 38 38l-3 -3q47 1 76 30h-1q10 14 10 35v114h1t1 1l-1 0.5t-1 2.5v38q0 20 -10 34h6q-13 5 -22 10l-17.5 9.5t-18 7.5t-23.5 3h-3q-3 0 -3 -2q-1 2 -2 2h-5q-22 0 -42.5 -7.5t-31.5 -22.5h1q-11 -16 -11 -34v-13q-2 -1 -3 -2l-1 -1
q0 -1 4 -1v-61q55 3 55 47v30q0 31 36 36q35 -5 35 -36v-154q0 -30 -31 -36h-6q-21 0 -42.5 -7.5t-30.5 -22.5h1q-11 -14 -11 -35v-186h104h77z" />
    <glyph glyph-name="threesuperior" unicode="&#xb3;" horiz-adv-x="270" 
d="M231 319v100q4 0 4 2l-4 3v38q0 20 -10 34h1l-12 9q-4 3 -7 6q5 3 9.5 7t9.5 9h-1q10 13 10 33v89q3 0 3 1t-3 4v37q0 21 -10 35h1q-11 14 -32 22t-44 8h-3q-2 -1 -3 -1q-2 0 -2 1h-5q-25 0 -41 -8.5t-38 -21.5h6q-11 -16 -11 -35v-19l-4 -2q0 -3 4 -3v-54q55 5 55 45v32
q0 32 36 37q35 -5 35 -37v-128q0 -33 -36 -36l-28 -2l-2 -27h35q31 -6 31 -36v-141q0 -31 -35 -37q-36 6 -36 35v20q0 46 -55 47v-54q-2 0 -2 -1q0 -2 2 -4v-7q0 -19 11 -35h-1q11 -15 31.5 -23t42.5 -8h13q14 0 23.5 2.5t17 7t15.5 10t20 11.5h-2q6 7 8.5 16t2.5 19z" />
    <glyph glyph-name="acute" unicode="&#xb4;" horiz-adv-x="255" 
d="M220 769q-20 6 -36 6q-53 0 -75 -48l-40 -83h1l-25 -49q10 -2 19 -4t17 -2q51 0 76 49z" />
    <glyph glyph-name="mu" unicode="&#xb5;" horiz-adv-x="316" 
 />
    <glyph glyph-name="paragraph" unicode="&#xb6;" horiz-adv-x="490" 
d="M455 -2v688q0 70 -78 76l-204 -1q-32 0 -59.5 -9.5t-45.5 -29.5q-22 -22 -22 -57l-1 -61v-168q1 -32 23 -57h-2q2 -1 4 -3.5t7 -5.5q19 -15 43 -22t53 -7h19q24 0 51 7v-350q0 -63 78 -69l-1 748v1q0 6 39 6h18v-636v-119q78 6 78 69z" />
    <glyph glyph-name="periodcentered" unicode="&#xb7;" horiz-adv-x="158" 
d="M123 269l-1 49l1 24q0 65 -78 68v-74q0 -64 78 -67z" />
    <glyph glyph-name="periodcentered" unicode="&#x2219;" horiz-adv-x="158" 
d="M123 269l-1 49l1 24q0 65 -78 68v-74q0 -64 78 -67z" />
    <glyph glyph-name="cedilla" unicode="&#xb8;" horiz-adv-x="233" 
d="M196 -174h-6q6 9 6 20v23q2 0 2 1v1t-2 2v49q0 12 -7 20h3q-7 4 -10.5 7t-6 4.5t-6 2.5t-9.5 2h-1q-15 3 -15 19v11q0 28 -46 30v-42q0 -11 7 -19h-1q7 -6 15.5 -9.5t15.5 -7t11.5 -7.5t4.5 -12v-75q0 -19 -28 -21q-27 1 -27 21v18q0 28 -46 30v-37q-5 -1 -5 -2t5 -3v-6
q0 -12 7 -20h-1q14 -11 28 -15.5t34 -4.5h10q21 0 34.5 5t33.5 15z" />
    <glyph glyph-name="onesuperior" unicode="&#xb9;" horiz-adv-x="205" 
d="M170 314l-1 446q-37 -3 -48 -20l-52 -48l-24 -21q21 -22 42 -22q13 0 26 10v-355q0 -46 56 -47z" />
    <glyph glyph-name="ordmasculine" unicode="&#xba;" horiz-adv-x="230" 
d="M195 582v120q-9 12 -16 19.5t-14.5 11t-17 4.5t-22.5 1h-10q-26 0 -47 -11t-21 -25v-18q-2 -2 -2 -5q0 -2 2 -2v-95q0 -9 4 -14l6 -6q2 -2 4.5 -3.5t3.5 -2.5h1q18 -11 49 -11h10q28 0 49 10t21 27zM145 582q0 -12 -25 -16q-24 5 -24 16v119q0 13 24 15q25 -1 25 -15
v-119z" />
    <glyph glyph-name="guillemotright" unicode="&#xbb;" horiz-adv-x="471" 
d="M238 238q12 12 12 37q0 28 -15 42l-3 3q-5 6 -14 11l-126 85l-35 22q-12 -24 -12 -43q0 -32 36 -59l79 -61l-81 -58q-33 -21 -33 -53q0 -23 16 -49l157 106l10.5 9t8.5 8zM423 238q13 15 13 37q0 28 -15 42l-4 3q-3 3 -5.5 6t-7.5 5l-126 85l-35 22q-13 -26 -13 -43
q0 -32 36 -59l79 -61l-80 -58q-33 -21 -33 -53q0 -23 16 -49l157 106q5 5 9.5 9t8.5 8z" />
    <glyph glyph-name="onequarter" unicode="&#xbc;" horiz-adv-x="763" 
d="M513 749q-18 5 -32 5q-44 0 -60 -42l-266 -736q8 -3 16 -4t16 -1q43 0 60 42zM728 188v4q0 42 -41 42v166q-55 -6 -55 -48v-118h-43v217q0 52 -56 58v-274q0 -47 54 -47h45v-144q0 -45 55 -46v190h41zM170 314l-1 446q-37 -3 -48 -20l-52 -48l-24 -21q21 -22 42 -22
q13 0 26 10v-355q0 -46 56 -47z" />
    <glyph glyph-name="onehalf" unicode="&#xbd;" horiz-adv-x="720" 
d="M513 749q-18 5 -32 5q-44 0 -60 -42l-266 -736q8 -3 16 -4t16 -1q43 0 60 42zM685 -6q-3 53 -47 53h-77v133q0 15 9 25t28 12l-2 -1q25 0 42 7t33 23h-2q12 12 12 34v114v0q1 0 1 1l-0.5 0.5t-0.5 1.5v39q0 19 -12 33h7q-13 6 -22 11.5t-17.5 9.5t-18 6.5t-22.5 2.5h-13
q-26 0 -43 -7t-33 -23h2q-10 -13 -10 -33v-14q-3 -1 -4 -1.5l-1 -0.5q0 -1 5 -1v-61q55 3 55 46v30q0 32 35 38q36 -6 36 -38v-153q0 -31 -32 -36h-6q-22 0 -41 -7t-32 -23h1q-10 -14 -10 -35v-186h103h77zM170 314l-1 446q-37 -3 -48 -20l-52 -48l-24 -21q21 -22 42 -22
q13 0 26 10v-355q0 -46 56 -47z" />
    <glyph glyph-name="threequarters" unicode="&#xbe;" horiz-adv-x="802" 
d="M552 749q-18 5 -33 5q-42 0 -58 -42l-267 -736q8 -3 15.5 -4t15.5 -1q44 0 60 42zM231 319v100q4 0 4 2l-4 3v38q0 20 -10 34h1l-12 9q-4 3 -7 6q5 3 9.5 7t9.5 9h-1q10 13 10 33v89q3 0 3 1t-3 4v37q0 21 -10 35h1q-11 14 -32 22t-44 8h-3q-2 -1 -3 -1q-2 0 -2 1h-5
q-25 0 -41 -8.5t-38 -21.5h6q-11 -16 -11 -35v-19l-4 -2q0 -3 4 -3v-54q55 5 55 45v32q0 32 36 37q35 -5 35 -37v-128q0 -33 -36 -36l-28 -2l-2 -27h35q31 -6 31 -36v-141q0 -31 -35 -37q-36 6 -36 35v20q0 46 -55 47v-54q-2 0 -2 -1q0 -2 2 -4v-7q0 -19 11 -35h-1
q11 -15 31.5 -23t42.5 -8h13q14 0 23.5 2.5t17 7t15.5 10t20 11.5h-2q6 7 8.5 16t2.5 19zM767 188v4q0 42 -40 42v166q-56 -6 -56 -48v-118h-42v217q0 52 -57 58v-274q0 -47 55 -47h44v-144q0 -44 56 -46l-1 76v114h41z" />
    <glyph glyph-name="questiondown" unicode="&#xbf;" horiz-adv-x="354" 
d="M319 -46v116q-78 -6 -78 -69v-45q0 -54 -59 -60q-59 6 -59 60v187q0 24 9 34t21.5 15.5l26.5 11.5t25 22h-2q21 22 21 56v146q-78 -3 -78 -68l1 -20l-1 -56q-2 -41 -31 -54l-5 -2q-13 -5 -25 -11t-20 -17h2q-22 -21 -22 -56v-190q0 -33 22 -56h-2q16 -8 27.5 -15
t23 -12.5t24.5 -9t32 -3.5h5q2 2 5 2t5 -2h4q15 0 32 3t32.5 8t27 12.5t16.5 16.5h-1q10 12 15.5 25.5t5.5 30.5zM226 541l-1 25l1 50q-78 -5 -78 -69v-74q78 4 78 68z" />
    <glyph glyph-name="Agrave" unicode="&#xc0;" 
d="M317 -8v673q0 33 -20 56h1q-39 39 -107 39h-20q-36 0 -60 -9t-38.5 -23t-21 -31t-6.5 -32v-671q78 3 78 68v291h116v-293q0 -65 78 -68zM239 416h-116v246q0 56 58 60q58 -4 58 -60v-246zM269 815l-44 90q-21 48 -76 48q-8 0 -16.5 -1t-19.5 -4l44 -90q22 -48 75 -48
q8 0 17.5 1t19.5 4z" />
    <glyph glyph-name="Aacute" unicode="&#xc1;" 
d="M317 -8v673q0 33 -20 56h1q-39 39 -107 39h-20q-15 0 -31 -3.5t-30.5 -9t-26.5 -12.5t-19 -14h3q-22 -22 -22 -56v-671q78 3 78 68v291h116v-293q0 -65 78 -68zM239 416h-116v246q0 56 58 60q58 -4 58 -60v-246zM269 948q-10 3 -19.5 4t-17.5 1q-53 0 -75 -48l-44 -90
q11 -3 19.5 -4t16.5 -1q52 0 76 48z" />
    <glyph glyph-name="Acircumflex" unicode="&#xc2;" 
d="M317 -8v673q0 33 -20 56h1q-39 39 -107 39h-20q-15 0 -31 -3.5t-30.5 -9t-26.5 -12.5t-19 -14h3q-22 -22 -22 -56v-671q78 3 78 68v291h116v-293q0 -65 78 -68zM239 416h-116v246q0 56 58 60q58 -4 58 -60v-246zM304 808l-66 103q-5 11 -11 15l-2 3q-16 14 -42 14
q-18 0 -30.5 -8t-17.5 -14.5t-6 -7.5l-44 -69l-22 -35q28 -16 50 -16q32 0 52 33l18 27l19 -30q20 -32 52 -32q11 1 23.5 5t26.5 12z" />
    <glyph glyph-name="Atilde" unicode="&#xc3;" horiz-adv-x="381" 
d="M331 -8v673q0 32 -21 56h1q-39 39 -108 39h-19q-15 0 -31 -3.5t-30.5 -9t-27 -12.5t-19.5 -14h3q-22 -22 -22 -56v-671q78 3 78 68v291h118v-293q0 -65 78 -68zM253 416h-118v246q0 56 59 60q59 -5 59 -60v-246zM346 913l-18 9q-2 -12 -7.5 -23t-12.5 -18.5t-14.5 -12
t-13.5 -4.5q-11 0 -39 14l-46 23q-39 18 -59 18q-24 0 -47 -26.5t-44 -76.5l14 -10q12 24 20 37.5t19 13.5q-1 0 43 -19l49 -22q29 -14 52 -14q31 0 53 28.5t51 82.5z" />
    <glyph glyph-name="Adieresis" unicode="&#xc4;" 
d="M317 -8v673q0 33 -20 56h1q-39 39 -107 39h-20q-15 0 -31 -3.5t-30.5 -9t-26.5 -12.5t-19 -14h3q-22 -22 -22 -56v-671q78 3 78 68v291h116v-293q0 -65 78 -68zM239 416h-116v246q0 56 58 60q58 -4 58 -60v-246zM278 805l-1 49l1 26q0 62 -78 67v-73q0 -32 19.5 -50.5
t58.5 -18.5zM151 805l-2 49l2 26q0 62 -78 67v-73q0 -65 78 -69z" />
    <glyph glyph-name="Aring" unicode="&#xc5;" 
d="M317 -8v673q0 33 -20 56h1q-32 32 -85 39q20 2 30.5 12.5t10.5 20.5v119q-14 26 -29 31.5t-40 5.5h-9q-28 0 -49 -11.5t-21 -25.5v-17q-2 -2 -2 -5q0 -2 2 -2v-95q0 -10 4 -14l5 -5q11 -8 16.5 -11t19.5 -5q-30 -4 -51.5 -13.5t-35.5 -23.5h3q-22 -22 -22 -56v-671
q78 3 78 68v291h116v-293q0 -65 78 -68zM239 416h-116v246q0 56 58 60q58 -4 58 -60v-246zM205 794q0 -13 -24 -15q-26 2 -26 15v118q0 12 26 14q24 -2 24 -14v-118z" />
    <glyph glyph-name="AE" unicode="&#xc6;" horiz-adv-x="539" 
d="M525 0v4q0 60 -59 60h-144v324h49q36 0 57 1t32 4t14.5 9t3.5 17v2q-8 0 -22.5 5.5l-31 11.5l-31.5 11.5t-22 5.5h-49v247h144q59 0 59 60v4h-203q-31 -2 -50 -15q-33 20 -81 20h-20q-15 0 -31 -3.5t-30.5 -9t-26.5 -12.5t-19 -14h3q-22 -22 -22 -56v-671q78 3 78 68v291
h116v-293q0 -37 23 -53.5t60 -18.5v1h203zM239 427h-116v246q0 56 58 60q58 -4 58 -60v-246z" />
    <glyph glyph-name="Ccedilla" unicode="&#xc7;" horiz-adv-x="354" 
d="M319 86v99q-78 -6 -78 -69l1 -20l-1 -7q-3 -55 -59 -60q-59 4 -59 60v576q0 54 59 61q59 -8 59 -61v-45q0 -62 78 -68v115q0 17 -5.5 31t-15.5 26h1q-14 23 -49.5 33.5t-72.5 11.5q-36 0 -59 -13.5l-53 -31.5h2q-22 -23 -22 -57v-581q0 -33 22 -56h-2q17 -17 36.5 -24.5
t56.5 -13.5v-16q0 -11 7 -19h-2q9 -6 17.5 -10t15 -7.5t11 -7.5t4.5 -11v-75q0 -19 -29 -21q-27 1 -27 21v18q0 29 -46 30v-37q-5 -1 -5 -2t5 -3v-6q0 -12 7 -20h-1q16 -11 28.5 -15.5t33.5 -4.5h10q22 0 35 5t27 15q6 9 6 20q1 17 1 20v4v1t-1 2q0 21 -0.5 34t-1 20
t-1.5 10t-2 5q-11 9 -16 11.5t-16 4.5q-15 3 -16 19v15q22 0 43 6.5t37.5 18t26.5 29t10 40.5z" />
    <glyph glyph-name="Egrave" unicode="&#xc8;" horiz-adv-x="360" 
d="M325 -11v4q0 60 -59 60h-143v324h48q36 0 57 1t32.5 4t15 9t3.5 17v2q-8 0 -23 5.5l-31 11.5l-31 11.5t-23 5.5h-48v247h143q59 0 59 60v4h-202q-78 -6 -78 -69v-630q0 -65 78 -68v1h202zM260 815l-25 49h1l-18 41q-24 48 -77 48q-8 0 -17 -1t-19 -4l43 -90
q24 -48 75 -48q9 0 18 1t19 4z" />
    <glyph glyph-name="Eacute" unicode="&#xc9;" horiz-adv-x="360" 
d="M325 -11v4q0 60 -59 60h-143v324h48q36 0 57 1t32.5 4t15 9t3.5 17v2q-8 0 -23 5.5l-31 11.5l-31 11.5t-23 5.5h-48v247h143q59 0 59 60v4h-202q-78 -6 -78 -69v-630q0 -65 78 -68v1h202zM260 948q-10 3 -19 4t-17 1q-52 0 -76 -48l-19 -41h1l-25 -49q10 -3 19 -4t18 -1
q52 0 76 48z" />
    <glyph glyph-name="Ecircumflex" unicode="&#xca;" horiz-adv-x="360" 
d="M325 -11v4q0 60 -59 60h-143v324h48q36 0 57 1t32.5 4t15 9t3.5 17v2q-8 0 -23 5.5l-31 11.5l-31 11.5t-23 5.5h-48v247h143q59 0 59 60v4h-202q-78 -6 -78 -69v-630q0 -65 78 -68v1h202zM303 808l-65 103q-5 11 -11 15l-3 3q-16 14 -42 14q-13 0 -22.5 -4.5t-16.5 -9.5
t-10.5 -10t-4.5 -6l-45 -69l-21 -35q28 -16 51 -16q32 0 52 33l17 27l19 -30q20 -32 53 -32q11 1 23 5t26 12z" />
    <glyph glyph-name="Edieresis" unicode="&#xcb;" horiz-adv-x="360" 
d="M325 -11v4q0 60 -59 60h-143v324h48q36 0 57 1t32.5 4t15 9t3.5 17v2q-8 0 -23 5.5l-31 11.5l-31 11.5t-23 5.5h-48v247h143q59 0 59 60v4h-202q-78 -6 -78 -69v-630q0 -65 78 -68v1h202zM285 805v75q0 62 -78 67v-73q0 -32 19.5 -50.5t58.5 -18.5zM159 805l-1 49l1 26
q0 62 -78 67v-73q0 -65 78 -69z" />
    <glyph glyph-name="Igrave" unicode="&#xcc;" horiz-adv-x="235" 
d="M151 56v699q-44 -3 -61 -21t-17 -62v-684q78 3 78 68zM200 815l-25 49h1l-19 41q-24 48 -76 48q-8 0 -17 -1t-19 -4l42 -90q24 -48 76 -48q9 0 18 1t19 4z" />
    <glyph glyph-name="Iacute" unicode="&#xcd;" horiz-adv-x="235" 
d="M151 56v699q-44 -3 -61 -21t-17 -62v-684q78 3 78 68zM200 948q-10 3 -19 4t-17 1q-53 0 -77 -48l-18 -41h1l-25 -49q10 -3 19 -4t18 -1q51 0 75 48z" />
    <glyph glyph-name="Icircumflex" unicode="&#xce;" horiz-adv-x="320" 
d="M195 56v699q-45 -3 -61.5 -21t-16.5 -62v-684q78 3 78 68zM285 808l-65 103q-5 11 -11 15l-2 3q-17 14 -42 14q-14 0 -23.5 -4.5t-16.5 -9.5t-10.5 -10t-4.5 -6l-43 -69l-22 -35q26 -16 50 -16q32 0 52 33l18 27l18 -30q20 -32 53 -32q11 1 23 5t26 12z" />
    <glyph glyph-name="Idieresis" unicode="&#xcf;" horiz-adv-x="284" 
d="M176 56v699q-43 -3 -60.5 -21t-17.5 -62v-684q78 3 78 68zM249 805v75q0 62 -78 67v-73q0 -32 19.5 -50.5t58.5 -18.5zM123 805l-1 49l1 26q0 62 -78 67v-73q0 -65 78 -69z" />
    <glyph glyph-name="Eth" unicode="&#xd0;" horiz-adv-x="418" 
d="M383 91v570q0 25 -10.5 43t-28 30t-40.5 17.5t-48 5.5h-67q-79 0 -79 -96v-199h-7q-58 0 -58 -54v-10h65v-307q0 -51 16.5 -73.5t60.5 -22.5h69q24 0 47 5.5t41 17.5t28.5 30t10.5 43zM305 92q0 -60 -70 -60h-48v12t1 24v330h19q59 0 59 57v7h-77v258q36 0 59 -2.5
t35.5 -9.5t17 -18.5t4.5 -29.5v-568z" />
    <glyph glyph-name="Ntilde" unicode="&#xd1;" horiz-adv-x="381" 
d="M331 -8v673q0 22 -10 40t-27.5 30t-41 18.5t-49.5 6.5h-19q-15 0 -31 -3.5t-30.5 -9t-27 -12.5t-19.5 -14h3q-22 -22 -22 -56v-671q78 3 78 68v600q0 56 59 60q59 -5 59 -60v-602q0 -65 78 -68zM346 913l-18 9q-2 -12 -7.5 -23t-12.5 -18.5t-14.5 -12t-13.5 -4.5
q-11 0 -39 14l-46 23q-39 18 -59 18q-24 0 -47 -26.5t-44 -76.5l14 -10q12 24 20 37.5t19 13.5q-1 0 43 -19l49 -22q29 -14 52 -14q31 0 53 28.5t51 82.5z" />
    <glyph glyph-name="Ograve" unicode="&#xd2;" horiz-adv-x="353" 
d="M317 86l1 520h-1v1v60q0 32 -20 57h1q-13 20 -45 29.5t-62 9.5h-4q-2 -1 -6 -1h-2q-1 0 -3 1h-5q-55 0 -95 -30q-10 -8 -12 -9h3q-22 -23 -22 -57v-581q0 -33 22 -56h-3q17 -17 45 -27.5t62 -10.5h20q69 0 107 38h-1q20 25 20 56zM239 89q0 -56 -58 -60q-58 4 -58 60v576
q0 54 58 61q58 -7 58 -61v-576zM259 815l-26 49h2l-18 41q-24 48 -77 48q-8 0 -17 -1t-19 -4l43 -90q24 -48 76 -48q8 0 16.5 1t19.5 4z" />
    <glyph glyph-name="Oacute" unicode="&#xd3;" horiz-adv-x="353" 
d="M317 86l1 520h-1v1v60q0 32 -20 57h1q-13 20 -45 29.5t-62 9.5h-4q-2 -1 -6 -1h-2q-1 0 -3 1h-5q-55 0 -95 -30q-10 -8 -12 -9h3q-22 -23 -22 -57v-581q0 -33 22 -56h-3q17 -17 45 -27.5t62 -10.5h20q69 0 107 38h-1q20 25 20 56zM239 89q0 -56 -58 -60q-58 4 -58 60v576
q0 54 58 61q58 -7 58 -61v-576zM259 948q-11 3 -19.5 4t-16.5 1q-52 0 -76 -48l-43 -90q10 -3 19 -4t18 -1q52 0 76 48z" />
    <glyph glyph-name="Ocircumflex" unicode="&#xd4;" horiz-adv-x="353" 
d="M317 86l1 520h-1v1v60q0 32 -20 57h1q-13 20 -45 29.5t-62 9.5h-4q-2 -1 -6 -1h-2q-1 0 -3 1h-5q-55 0 -95 -30q-10 -8 -12 -9h3q-22 -23 -22 -57v-581q0 -33 22 -56h-3q17 -17 45 -27.5t62 -10.5h20q69 0 107 38h-1q20 25 20 56zM239 89q0 -56 -58 -60q-58 4 -58 60v576
q0 54 58 61q58 -7 58 -61v-576zM295 808l-66 103q-3 5 -6 9t-5 6l-3 3q-14 14 -42 14q-13 0 -23 -4.5t-16.5 -10t-10.5 -10t-5 -5.5l-43 -69l-22 -35q29 -16 51 -16q31 0 51 33l18 27l18 -30q21 -32 52 -32q24 1 52 17z" />
    <glyph glyph-name="Otilde" unicode="&#xd5;" horiz-adv-x="381" 
d="M332 86v521v60q0 24 -11 42t-28.5 30t-40.5 18t-47 6h-5q-1 -1 -5 -1q-2 0 -5 1h-5q-57 0 -94 -30q-9 -8 -13 -9h2q-22 -23 -22 -57v-581q0 -33 22 -56h-3q16 -16 46 -27t62 -11h20q40 0 65 9.5t38.5 23.5t18.5 30.5t5 30.5zM254 89q0 -56 -59 -60q-59 4 -59 60v576
q0 54 59 61q59 -7 59 -61v-576zM346 913l-18 9q-2 -12 -7.5 -23t-12.5 -18.5t-14.5 -12t-13.5 -4.5q-11 0 -39 14l-46 23q-39 18 -59 18q-24 0 -47 -26.5t-44 -76.5l14 -10q12 24 20 37.5t19 13.5q-1 0 43 -19l49 -22q29 -14 52 -14q31 0 53 28.5t51 82.5z" />
    <glyph glyph-name="Odieresis" unicode="&#xd6;" horiz-adv-x="353" 
d="M317 86l1 520h-1v1v60q0 32 -20 57h1q-13 20 -45 29.5t-62 9.5h-4q-2 -1 -6 -1h-2q-1 0 -3 1h-5q-55 0 -95 -30q-10 -8 -12 -9h3q-22 -23 -22 -57v-581q0 -33 22 -56h-3q17 -17 45 -27.5t62 -10.5h20q69 0 107 38h-1q20 25 20 56zM239 89q0 -56 -58 -60q-58 4 -58 60v576
q0 54 58 61q58 -7 58 -61v-576zM285 805l-1 49l1 26q0 62 -78 67v-73q0 -32 19.5 -50.5t58.5 -18.5zM158 805l-1 49l1 26q0 62 -78 67v-73q0 -65 78 -69z" />
    <glyph glyph-name="multiply" unicode="&#xd7;" horiz-adv-x="397" 
d="M359 157l-105 126l78 65q30 25 30 52q0 24 -23 46l-131 -109l-63 77q-22 26 -47 26t-52 -24l106 -126l-78 -64q-29 -26 -29 -51t23 -48l129 109l64 -76q24 -27 49 -27q12 0 23.5 6.5t25.5 17.5z" />
    <glyph glyph-name="Oslash" unicode="&#xd8;" horiz-adv-x="456" 
d="M421 793q-17 6 -32 6q-44 0 -60 -43l-7 -23q-36 30 -95 30h-4q-2 -1 -5 -1t-5 1h-5q-19 0 -32 -3t-24.5 -8.5t-23 -12.5t-27.5 -15h2q-21 -24 -21 -57v-596l-37 -105q13 -4 31 -4q44 0 60 43l1 2q17 -8 35 -11.5t36 -3.5h19q70 0 108 38h-1q10 12 15.5 25.5t5.5 30.5v521
zM277 608l-117 -324v381q0 54 58 61q59 -8 59 -61v-57zM277 89q0 -55 -59 -60q-49 4 -58 44l117 319v-303z" />
    <glyph glyph-name="Ugrave" unicode="&#xd9;" 
d="M317 86v674q-78 -5 -78 -69v-602q0 -56 -58 -60q-58 4 -58 60v600q0 65 -78 68v-671q0 -33 22 -56h-3q17 -17 45 -27.5t62 -10.5h20q69 0 107 38h-1q20 25 20 56zM259 815l-26 49h2l-18 41q-24 48 -77 48q-8 0 -17 -1t-19 -4l43 -90q24 -48 76 -48q8 0 16.5 1t19.5 4z
" />
    <glyph glyph-name="Uacute" unicode="&#xda;" 
d="M317 86v674q-78 -5 -78 -69v-602q0 -56 -58 -60q-58 4 -58 60v600q0 65 -78 68v-671q0 -33 22 -56h-3q17 -17 45 -27.5t62 -10.5h20q69 0 107 38h-1q20 25 20 56zM269 948q-10 3 -19 4t-17 1q-54 0 -76 -48l-44 -90q11 -3 20.5 -4t17.5 -1q52 0 75 48z" />
    <glyph glyph-name="Ucircumflex" unicode="&#xdb;" 
d="M317 86v674q-78 -5 -78 -69v-602q0 -56 -58 -60q-58 4 -58 60v600q0 65 -78 68v-671q0 -33 22 -56h-3q17 -17 45 -27.5t62 -10.5h20q69 0 107 38h-1q20 25 20 56zM304 808l-66 103q-5 11 -11 15l-2 3q-16 14 -42 14q-18 0 -30.5 -8t-17.5 -14.5t-6 -7.5l-44 -69l-22 -35
q28 -16 50 -16q32 0 52 33l18 27l19 -30q20 -32 52 -32q11 1 23.5 5t26.5 12z" />
    <glyph glyph-name="Udieresis" unicode="&#xdc;" 
d="M317 86v674q-78 -5 -78 -69v-602q0 -56 -58 -60q-58 4 -58 60v600q0 65 -78 68v-671q0 -33 22 -56h-3q17 -17 45 -27.5t62 -10.5h20q69 0 107 38h-1q20 25 20 56zM278 805l-1 49l1 26q0 62 -78 67v-73q0 -32 19.5 -50.5t58.5 -18.5zM151 805l-2 49l2 26q0 62 -78 67v-73
q0 -65 78 -69z" />
    <glyph glyph-name="Yacute" unicode="&#xdd;" 
d="M317 406v351q-78 -3 -78 -68v-281q0 -54 -58 -61q-58 7 -58 61v278q0 63 -78 68v-348q0 -34 22 -57h-3q16 -12 32.5 -21t42.5 -14l3 -1v-206v-118q78 4 78 69v254q22 4 43 13.5t35 23.5h-1q20 25 20 57zM259 948q-11 3 -19.5 4t-16.5 1q-52 0 -76 -48l-43 -90
q10 -3 19 -4t17 -1q52 0 75 48z" />
    <glyph glyph-name="Thorn" unicode="&#xde;" horiz-adv-x="378" 
d="M343 254v170v60q0 17 -5.5 30.5t-15.5 25.5h1q-5 9 -16.5 16.5t-26.5 12.5t-32 8t-31 3h-5q-3 -2 -5 -2t-5 2h-79v106q0 63 -78 69v-767q78 3 78 68v104h94q32 0 59 9t47 29h-1q10 12 15.5 25.5t5.5 30.5zM265 257q0 -55 -58 -61h-84v346h84q58 -6 58 -60v-225z" />
    <glyph glyph-name="germandbls" unicode="&#xdf;" horiz-adv-x="454" 
d="M419 20v366q0 32 -15.5 51.5t-43.5 30.5q34 26 34 70v141q0 21 -11.5 37.5t-25.5 28t-26 17.5t-13 6q-18 6 -61 6l-53 -1q-51 -1 -83.5 -28.5t-32.5 -66.5v-174l-78 -1q3 -67 65 -67h13v-255q79 4 79 69v426q0 53 63 62h27q26 0 42.5 -17.5t16.5 -43.5v-137
q0 -54 -59 -61v-1q3 -15 16.5 -22.5l28.5 -15.5t27 -20t12 -36v-361q0 -61 -59 -61q-58 0 -58 61q0 36 -3.5 57.5t-12 33.5t-23.5 16t-39 6v-116q0 -32 21 -56h-1q38 -38 116 -38q13 0 36 2.5t45.5 12t39 28t16.5 51.5z" />
    <glyph glyph-name="agrave" unicode="&#xe0;" horiz-adv-x="356" 
d="M321 -4v447q0 34 -22 56h2q-24 18 -47 27.5t-60 12.5h-5q-1 -1 -5 -1q-3 0 -5 1h-4q-32 0 -60 -10t-48 -30h2q-22 -24 -22 -56v-79q78 4 78 68v8q0 54 59 62q59 -7 59 -62v-75q0 -52 -56 -60h-15q-19 0 -32 -3.5t-24.5 -9t-23 -12.5t-27.5 -15h2q-22 -22 -22 -56v-123
q0 -33 22 -56h-2q15 -10 28 -17.5t25.5 -12t26 -6.5t30.5 -2h19q43 0 78 18q31 -14 45 -14h4zM243 88q0 -55 -61 -59q-58 4 -58 60l-1 117q0 51 54 60h1q10 0 10 2h6q22 0 49 6v-186zM265 600l-26 49h2l-18 41q-24 48 -77 48q-8 0 -17 -1t-19 -4l43 -89q24 -49 74 -49
q9 0 18 1t20 4z" />
    <glyph glyph-name="aacute" unicode="&#xe1;" horiz-adv-x="356" 
d="M321 -4v447q0 34 -22 56h2q-24 18 -47 27.5t-60 12.5h-5q-1 -1 -5 -1q-3 0 -5 1h-4q-32 0 -60 -10t-48 -30h2q-22 -24 -22 -56v-79q78 4 78 68v8q0 54 59 62q59 -7 59 -62v-75q0 -52 -56 -60h-15q-19 0 -32 -3.5t-24.5 -9t-23 -12.5t-27.5 -15h2q-22 -22 -22 -56v-123
q0 -33 22 -56h-2q15 -10 28 -17.5t25.5 -12t26 -6.5t30.5 -2h19q43 0 78 18q31 -14 45 -14h4zM243 88q0 -55 -61 -59q-58 4 -58 60l-1 117q0 51 54 60h1q10 0 10 2h6q22 0 49 6v-186zM265 733q-11 3 -19.5 4t-16.5 1q-52 0 -76 -48l-19 -41h1l-25 -49q10 -3 19.5 -4t17.5 -1
q51 0 76 49z" />
    <glyph glyph-name="acircumflex" unicode="&#xe2;" horiz-adv-x="356" 
d="M321 -4v447q0 34 -22 56h2q-24 18 -47 27.5t-60 12.5h-5q-1 -1 -5 -1q-3 0 -5 1h-4q-32 0 -60 -10t-48 -30h2q-22 -24 -22 -56v-79q78 4 78 68v8q0 54 59 62q59 -7 59 -62v-75q0 -52 -56 -60h-15q-19 0 -32 -3.5t-24.5 -9t-23 -12.5t-27.5 -15h2q-22 -22 -22 -56v-123
q0 -33 22 -56h-2q15 -10 28 -17.5t25.5 -12t26 -6.5t30.5 -2h19q43 0 78 18q31 -14 45 -14h4zM243 88q0 -55 -61 -59q-58 4 -58 60l-1 117q0 51 54 60h1q10 0 10 2h6q22 0 49 6v-186zM308 593l-65 103l-5.5 9t-5.5 7l-3 2q-14 14 -42 14q-14 0 -23.5 -4t-16 -9t-10 -10
t-4.5 -7l-45 -69l-21 -35q28 -16 51 -16q32 0 52 33l17 29l19 -32q20 -32 53 -32q11 1 23 5t26 12z" />
    <glyph glyph-name="atilde" unicode="&#xe3;" horiz-adv-x="381" 
d="M332 -4v447q0 33 -21 56h2q-13 9 -24 15.5t-23 11.5t-26.5 8t-33.5 5h-5q-1 -1 -5 -1q-3 0 -5 1h-4q-57 0 -96 -30q-5 -4 -7.5 -6.5t-4.5 -3.5h2q-22 -24 -22 -56v-79q78 4 78 68v8q0 54 59 62q58 -7 58 -62v-75q0 -53 -55 -60h-15q-55 0 -95 -30q-11 -9 -13 -10h3
q-22 -22 -22 -56v-3q-1 -1 -1 -4q0 -4 1 -5v-49q-1 -2 -1 -5q0 -4 1 -5v-52q0 -33 22 -56h-3l29 -16.5t25 -12t25.5 -7t31.5 -2.5h19q43 0 78 18q31 -14 45 -14h3zM254 88q0 -54 -60 -59q-56 5 -58 60l-1 117q0 51 54 60h1q10 0 10 1l6 1q21 0 48 6v-186zM346 698l-18 9
q-4 -25 -20 -41.5t-28 -16.5t-39 15l-46 22q-39 18 -59 18q-23 0 -47.5 -26.5t-43.5 -76.5l14 -9l20.5 38t18.5 12q-2 0 43 -18l49 -22q31 -15 52 -15q16 0 28.5 7.5t24 21.5t23.5 35z" />
    <glyph glyph-name="adieresis" unicode="&#xe4;" horiz-adv-x="356" 
d="M321 -4v447q0 34 -22 56h2q-24 18 -47 27.5t-60 12.5h-5q-1 -1 -5 -1q-3 0 -5 1h-4q-32 0 -60 -10t-48 -30h2q-22 -24 -22 -56v-79q78 4 78 68v8q0 54 59 62q59 -7 59 -62v-75q0 -52 -56 -60h-15q-19 0 -32 -3.5t-24.5 -9t-23 -12.5t-27.5 -15h2q-22 -22 -22 -56v-123
q0 -33 22 -56h-2q15 -10 28 -17.5t25.5 -12t26 -6.5t30.5 -2h19q43 0 78 18q31 -14 45 -14h4zM243 88q0 -55 -61 -59q-58 4 -58 60l-1 117q0 51 54 60h1q10 0 10 2h6q22 0 49 6v-186zM278 590v75q0 63 -78 68v-74q0 -31 19.5 -50t58.5 -19zM151 590v75q0 63 -78 68v-74
q0 -65 78 -69z" />
    <glyph glyph-name="aring" unicode="&#xe5;" horiz-adv-x="356" 
d="M321 -4v447q0 34 -22 56h2q-24 18 -47 27.5t-60 12.5h-5q-1 -1 -5 -1q-3 0 -5 1h-4q-32 0 -60 -10t-48 -30h2q-22 -24 -22 -56v-79q78 4 78 68v8q0 54 59 62q59 -7 59 -62v-75q0 -52 -56 -60h-15q-19 0 -32 -3.5t-24.5 -9t-23 -12.5t-27.5 -15h2q-22 -22 -22 -56v-123
q0 -33 22 -56h-2q15 -10 28 -17.5t25.5 -12t26 -6.5t30.5 -2h19q43 0 78 18q31 -14 45 -14h4zM259 622v118q-13 26 -28 32t-41 6h-9q-31 0 -50.5 -12.5t-19.5 -25.5v-18q-2 -4 -2 -3q0 -3 2 -3v-94q0 -10 5 -15l5 -6q15 -8 26.5 -12.5t33.5 -4.5h9q32 0 50.5 10.5t18.5 27.5
zM243 88q0 -55 -61 -59q-58 4 -58 60l-1 117q0 51 54 60h1q10 0 10 2h6q22 0 49 6v-186zM211 622q0 -14 -26 -16q-25 2 -25 16v117q0 14 25 16q26 -2 26 -16v-117z" />
    <glyph glyph-name="ae" unicode="&#xe6;" horiz-adv-x="550" 
d="M515 320v122q0 35 -21 56h2q-20 16 -50 28.5t-59 12.5h-5q-2 -1 -5 -1t-4 1h-5q-49 0 -88 -25q-39 25 -86 25h-5q-1 -1 -5 -1q-3 0 -5 1h-4q-32 0 -60 -10t-48 -30h2q-22 -24 -22 -56v-79q78 4 78 68v8q0 54 59 62q49 -6 57 -46l-2 -74l2 -35q-9 -38 -54 -42h-15
q-19 0 -32 -3.5t-24.5 -9t-23 -12.5t-27.5 -15h2q-22 -22 -22 -56v-123q0 -33 22 -56h-2q15 -10 28 -17.5t25.5 -12t26 -6.5t30.5 -2h19q43 0 78 18q31 -14 45 -14l4 2q27 -6 47 -6h19q24 0 47 5.5t40.5 17t28.5 29t11 42.5v89q-78 -5 -78 -68v-18q0 -56 -59 -60
q-47 4 -56 42v162q37 -9 48 -9h20q15 0 31.5 3t32 8t27 12.5t16.5 16.5h-2q21 24 21 56zM241 74q-8 -41 -59 -45q-58 4 -58 60l-1 117q0 51 54 60h1q10 0 10 2h6q21 0 47 6v-200zM437 322q0 -54 -58 -60q-58 6 -58 60v118q0 54 58 60q55 -6 57 -60l1 -70v-48z" />
    <glyph glyph-name="ccedilla" unicode="&#xe7;" horiz-adv-x="354" 
d="M319 86v99q-78 -6 -78 -69l1 -20l-1 -7q-3 -55 -59 -60q-59 4 -59 60v351q0 55 59 62q59 -8 59 -62v-44q0 -64 78 -68v93v22q0 32 -21 56h1q-5 9 -16.5 16.5t-27 12.5t-32.5 8t-32 3h-4q-2 -1 -5 -1t-5 1h-5q-19 0 -32 -3.5t-24.5 -9t-23 -12.5t-27.5 -15h2
q-22 -22 -22 -56v-357q0 -33 22 -56h-2q26 -26 74 -35l21 -3l-1 -20q0 -8 6 -15h-1q9 -7 17.5 -11l15 -7t11 -7t4.5 -11v-75q0 -19 -29 -21q-28 2 -28 21v18q0 28 -45 30v-37q-5 -1 -5 -2t5 -3v-6q0 -12 7 -20h-1q14 -11 28 -15.5t34 -4.5h10q23 0 36 5.5l33 14.5h-8
q7 8 7 20v23q1 0 1 1v1t-1 2v49q0 12 -7 20h2q-8 7 -13.5 10.5t-16.5 5.5h-2q-13 3 -16 19v15q21 0 42 6t37.5 18t26.5 29.5t10 40.5z" />
    <glyph glyph-name="egrave" unicode="&#xe8;" horiz-adv-x="356" 
d="M321 320v122q0 35 -22 56h2q-20 15 -49 28t-61 13h-4q-2 -1 -5 -1t-5 1h-5q-19 0 -32 -3.5t-24.5 -9t-23 -12.5t-27.5 -15h2q-22 -22 -22 -56v-357q0 -33 22 -56h-2q17 -17 46 -27.5t61 -10.5h19q25 0 48 5.5t41 17.5t28.5 29.5t10.5 41.5v89q-78 -5 -78 -68v-18
q0 -55 -59 -60q-59 4 -59 60v144q39 -9 52 -9h19q29 0 60 9.5t47 30.5h-2q22 23 22 56zM243 322q0 -54 -59 -60q-59 6 -59 60v118q0 54 59 60q54 -6 57 -60l2 -70v-48zM265 600l-22 49l-20 41q-24 48 -77 48q-8 0 -17 -1t-19 -4l43 -89q24 -49 74 -49q9 0 18 1t20 4z" />
    <glyph glyph-name="eacute" unicode="&#xe9;" horiz-adv-x="356" 
d="M321 320v122q0 35 -22 56h2q-20 15 -49 28t-61 13h-4q-2 -1 -5 -1t-5 1h-5q-19 0 -32 -3.5t-24.5 -9t-23 -12.5t-27.5 -15h2q-22 -22 -22 -56v-357q0 -33 22 -56h-2q17 -17 46 -27.5t61 -10.5h19q25 0 48 5.5t41 17.5t28.5 29.5t10.5 41.5v89q-78 -5 -78 -68v-18
q0 -55 -59 -60q-59 4 -59 60v144q39 -9 52 -9h19q29 0 60 9.5t47 30.5h-2q22 23 22 56zM243 322q0 -54 -59 -60q-59 6 -59 60v118q0 54 59 60q54 -6 57 -60l2 -70v-48zM265 733q-11 3 -19.5 4t-16.5 1q-52 0 -76 -48l-19 -41h1l-25 -49q10 -3 19.5 -4t17.5 -1q51 0 76 49z
" />
    <glyph glyph-name="ecircumflex" unicode="&#xea;" horiz-adv-x="356" 
d="M321 320v122q0 35 -22 56h2q-20 15 -49 28t-61 13h-4q-2 -1 -5 -1t-5 1h-5q-19 0 -32 -3.5t-24.5 -9t-23 -12.5t-27.5 -15h2q-22 -22 -22 -56v-357q0 -33 22 -56h-2q17 -17 46 -27.5t61 -10.5h19q25 0 48 5.5t41 17.5t28.5 29.5t10.5 41.5v89q-78 -5 -78 -68v-18
q0 -55 -59 -60q-59 4 -59 60v144q39 -9 52 -9h19q29 0 60 9.5t47 30.5h-2q22 23 22 56zM243 322q0 -54 -59 -60q-59 6 -59 60v118q0 54 59 60q54 -6 57 -60l2 -70v-48zM308 593l-65 103l-5.5 9t-5.5 7l-3 2q-14 14 -42 14q-14 0 -23.5 -4t-16 -9t-10 -10t-4.5 -7l-45 -69
l-21 -35q28 -16 51 -16q32 0 52 33l17 29l19 -32q20 -32 53 -32q11 1 23 5t26 12z" />
    <glyph glyph-name="edieresis" unicode="&#xeb;" horiz-adv-x="356" 
d="M321 320v122q0 35 -22 56h2q-20 15 -49 28t-61 13h-4q-2 -1 -5 -1t-5 1h-5q-19 0 -32 -3.5t-24.5 -9t-23 -12.5t-27.5 -15h2q-22 -22 -22 -56v-357q0 -33 22 -56h-2q17 -17 46 -27.5t61 -10.5h19q25 0 48 5.5t41 17.5t28.5 29.5t10.5 41.5v89q-78 -5 -78 -68v-18
q0 -55 -59 -60q-59 4 -59 60v144q39 -9 52 -9h19q29 0 60 9.5t47 30.5h-2q22 23 22 56zM243 322q0 -54 -59 -60q-59 6 -59 60v118q0 54 59 60q54 -6 57 -60l2 -70v-48zM278 590v75q0 63 -78 68v-74q0 -31 19.5 -50t58.5 -19zM151 590v75q0 63 -78 68v-74q0 -65 78 -69z" />
    <glyph glyph-name="igrave" unicode="&#xec;" horiz-adv-x="163" 
d="M126 58q0 -65 -78 -69l1 118l-1 405q78 -5 78 -68v-386zM166 600q-10 -3 -19 -4t-18 -1q-52 0 -76 49l-42 89q10 3 19 4t17 1q52 0 76 -48l19 -41h-1z" />
    <glyph glyph-name="iacute" unicode="&#xed;" horiz-adv-x="176" 
d="M129 58q0 -65 -78 -69l1 118l-1 405q78 -5 78 -68v-386zM169 733l-43 -89q-25 -49 -75 -49q-9 0 -18 1t-19 4l25 49h-1l18 41q24 48 77 48q8 0 17 -1t19 -4z" />
    <glyph glyph-name="icircumflex" unicode="&#xee;" horiz-adv-x="177" 
d="M131 58q0 -65 -78 -69v523q78 -5 78 -68v-386zM211 593q-27 -16 -50 -17q-32 0 -52 32l-18 32l-18 -29q-20 -33 -52 -33q-25 0 -50 16l22 35l43 69q1 2 4.5 7t10 10t16.5 9t24 4q26 0 42 -14l2 -2q7 -7 11 -16z" />
    <glyph glyph-name="idieresis" unicode="&#xef;" horiz-adv-x="178" 
d="M131 58q0 -64 -80 -69v523q80 -5 80 -68v-386zM193 590q-39 0 -58.5 19t-19.5 50v74q78 -5 78 -68v-75zM67 590q-78 4 -78 69v74q78 -5 78 -68v-75z" />
    <glyph glyph-name="eth" unicode="&#xf0;" horiz-adv-x="456" 
d="M421 514q0 63 -26 94.5t-69 31.5h-4v106q-78 -5 -78 -68v-38q-25 1 -45 1h-34q-33 0 -46.5 -0.5t-17.5 -0.5h-3q-8 5 -12 17t-4 28v27h-36q-1 -13 -1 -26v-26q3 -55 23.5 -77.5t73.5 -22.5h103v-128q-23 5 -36.5 6.5t-17.5 1.5h-19q-36 0 -60.5 -9t-39.5 -22.5t-21 -30.5
t-6 -32v-260q0 -33 22 -56h-2q40 -38 107 -38h19q21 0 39.5 4t35.5 12q22 -19 56 -19l1 573q62 0 62 -74q0 -6 -1 -12t-2 -13l39 -1v52zM241 89q0 -55 -59 -60q-59 4 -59 60v254q0 55 59 61q59 -6 59 -61v-254z" />
    <glyph glyph-name="ntilde" unicode="&#xf1;" horiz-adv-x="381" 
d="M331 -8v448q0 17 -5.5 31t-15.5 26h1q-15 7 -26 14t-22.5 12.5t-25.5 8.5t-34 3h-19q-33 0 -60.5 -12t-47.5 -26h3q-22 -23 -22 -57v-446q78 3 78 68v376q0 54 59 60q59 -6 59 -60v-378q0 -65 78 -68zM346 698l-18 9q-4 -25 -20 -41.5t-28 -16.5t-39 15l-46 22
q-39 18 -59 18q-23 0 -47.5 -26.5t-43.5 -76.5l14 -9l20.5 38t18.5 12q-2 0 43 -18l49 -22q31 -15 52 -15q16 0 28.5 7.5t24 21.5t23.5 35z" />
    <glyph glyph-name="ograve" unicode="&#xf2;" horiz-adv-x="354" 
d="M319 86v297v60q0 32 -21 56h1q-5 9 -16.5 16.5t-27 12.5t-32.5 8t-32 3h-4q-2 -1 -5 -1t-5 1h-5q-19 0 -32 -3.5t-24.5 -9t-23 -12.5t-27.5 -15h2q-22 -22 -22 -56v-357q0 -33 22 -56h-2q17 -17 46 -27.5t61 -10.5h19q25 0 48 5.5t41 17.5t28.5 29.5t10.5 41.5zM241 89
q0 -55 -59 -60q-59 4 -59 60v351q0 55 59 62q59 -8 59 -62v-351zM265 600l-26 49h2l-18 41q-24 48 -77 48q-8 0 -17 -1t-19 -4l43 -89q24 -49 74 -49q9 0 18 1t20 4z" />
    <glyph glyph-name="oacute" unicode="&#xf3;" horiz-adv-x="354" 
d="M319 86v297v60q0 32 -21 56h1q-5 9 -16.5 16.5t-27 12.5t-32.5 8t-32 3h-4q-2 -1 -5 -1t-5 1h-5q-19 0 -32 -3.5t-24.5 -9t-23 -12.5t-27.5 -15h2q-22 -22 -22 -56v-357q0 -33 22 -56h-2q17 -17 46 -27.5t61 -10.5h19q25 0 48 5.5t41 17.5t28.5 29.5t10.5 41.5zM241 89
q0 -55 -59 -60q-59 4 -59 60v351q0 55 59 62q59 -8 59 -62v-351zM265 733q-11 3 -19.5 4t-16.5 1q-52 0 -76 -48l-19 -41h1l-25 -49q10 -3 19.5 -4t17.5 -1q51 0 76 49z" />
    <glyph glyph-name="ocircumflex" unicode="&#xf4;" horiz-adv-x="354" 
d="M319 86v297v60q0 32 -21 56h1q-5 9 -16.5 16.5t-27 12.5t-32.5 8t-32 3h-4q-2 -1 -5 -1t-5 1h-5q-19 0 -32 -3.5t-24.5 -9t-23 -12.5t-27.5 -15h2q-22 -22 -22 -56v-357q0 -33 22 -56h-2q17 -17 46 -27.5t61 -10.5h19q25 0 48 5.5t41 17.5t28.5 29.5t10.5 41.5zM241 89
q0 -55 -59 -60q-59 4 -59 60v351q0 55 59 62q59 -8 59 -62v-351zM308 593l-65 103l-5.5 9t-5.5 7l-3 2q-14 14 -42 14q-14 0 -23.5 -4t-16 -9t-10 -10t-4.5 -7l-45 -69l-21 -35q28 -16 51 -16q32 0 52 33l17 29l19 -32q20 -32 53 -32q11 1 23 5t26 12z" />
    <glyph glyph-name="otilde" unicode="&#xf5;" horiz-adv-x="381" 
d="M331 86v297v60q0 32 -21 56h1q-15 20 -45.5 30t-62.5 10h-4q-2 -1 -5 -1t-5 1h-5q-55 0 -95 -30q-5 -4 -7.5 -6.5t-4.5 -3.5h2q-22 -22 -22 -56l-1 -61l1 -296q0 -33 22 -56h-3q17 -17 47 -27.5t61 -10.5h19q25 0 48 5.5t41 17.5t28.5 29.5t10.5 41.5zM253 89
q0 -55 -59 -60q-59 4 -59 60v351q0 55 59 62q59 -8 59 -62v-351zM346 698l-18 9q-4 -25 -20 -41.5t-28 -16.5t-39 15l-46 22q-39 18 -59 18q-23 0 -47.5 -26.5t-43.5 -76.5l14 -9l20.5 38t18.5 12q-2 0 43 -18l49 -22q31 -15 52 -15q16 0 28.5 7.5t24 21.5t23.5 35z" />
    <glyph glyph-name="odieresis" unicode="&#xf6;" horiz-adv-x="354" 
d="M319 86v297v60q0 32 -21 56h1q-5 9 -16.5 16.5t-27 12.5t-32.5 8t-32 3h-4q-2 -1 -5 -1t-5 1h-5q-19 0 -32 -3.5t-24.5 -9t-23 -12.5t-27.5 -15h2q-22 -22 -22 -56v-357q0 -33 22 -56h-2q17 -17 46 -27.5t61 -10.5h19q25 0 48 5.5t41 17.5t28.5 29.5t10.5 41.5zM241 89
q0 -55 -59 -60q-59 4 -59 60v351q0 55 59 62q59 -8 59 -62v-351zM278 590v75q0 63 -78 68v-74q0 -31 19.5 -50t58.5 -19zM151 590v75q0 63 -78 68v-74q0 -65 78 -69z" />
    <glyph glyph-name="divide" unicode="&#xf7;" horiz-adv-x="398" 
d="M363 319h-260q-58 0 -58 -54v-9h260q58 0 58 56v7zM243 96v74q0 64 -78 69v-75q0 -62 78 -68zM243 341v74q0 64 -78 67v-73q0 -65 78 -68z" />
    <glyph glyph-name="oslash" unicode="&#xf8;" horiz-adv-x="382" 
d="M347 571q-15 6 -32 6q-44 0 -60 -42l-1 -2l-22.5 4t-24.5 2h-5q-2 -1 -6 -1q-2 0 -5 1h-4q-67 0 -107 -40h2q-21 -23 -21 -56l-2 -61l2 -296q0 -27 13 -46l-29 -80q13 -4 31 -4q43 0 60 42v1q27 -7 51 -7h20q33 0 60 9t47 29h-1q20 25 20 56v297v60q0 30 -16 50zM255 89
q0 -56 -59 -60q-26 1 -42 17l101 274v-231zM237 486l-98 -271v225q0 54 57 62q27 -4 41 -16z" />
    <glyph glyph-name="ugrave" unicode="&#xf9;" 
d="M317 86v449q-78 -3 -78 -68v-378q0 -56 -58 -60q-58 4 -58 60v375q0 64 -78 69v-447q0 -33 22 -56h-3q17 -17 45 -27.5t62 -10.5h20q69 0 107 38h-1q20 25 20 56zM265 600l-27 49h1l-18 41q-21 48 -75 48q-8 0 -17 -1t-19 -4l43 -89q24 -49 74 -49q8 0 17.5 1t20.5 4z
" />
    <glyph glyph-name="uacute" unicode="&#xfa;" 
d="M317 86v449q-78 -3 -78 -68v-378q0 -56 -58 -60q-58 4 -58 60v375q0 64 -78 69v-447q0 -33 22 -56h-3q17 -17 45 -27.5t62 -10.5h20q69 0 107 38h-1q20 25 20 56zM265 733q-11 3 -20.5 4t-17.5 1q-50 0 -74 -48l-19 -41h1l-25 -49q10 -3 19 -4t17 -1q52 0 75 49z" />
    <glyph glyph-name="ucircumflex" unicode="&#xfb;" 
d="M317 86v449q-78 -3 -78 -68v-378q0 -56 -58 -60q-58 4 -58 60v375q0 64 -78 69v-447q0 -33 22 -56h-3q17 -17 45 -27.5t62 -10.5h20q69 0 107 38h-1q20 25 20 56zM308 593l-65 103l-5.5 9t-5.5 7l-5 2q-11 14 -40 14q-15 0 -25 -4.5t-16.5 -9.5t-10 -10t-4.5 -6l-44 -69
l-20 -35q26 -16 50 -16q33 0 53 33l17 29l19 -32q20 -32 51 -32q26 2 51 17z" />
    <glyph glyph-name="udieresis" unicode="&#xfc;" 
d="M317 86v449q-78 -3 -78 -68v-378q0 -56 -58 -60q-58 4 -58 60v375q0 64 -78 69v-447q0 -33 22 -56h-3q17 -17 45 -27.5t62 -10.5h20q69 0 107 38h-1q20 25 20 56zM290 590v75q0 63 -78 68v-74q0 -31 19.5 -50t58.5 -19zM163 590v75q0 63 -78 68v-74q0 -65 78 -69z" />
    <glyph glyph-name="yacute" unicode="&#xfd;" horiz-adv-x="354" 
d="M317 -151v61v268v361q-78 -5 -78 -69v-379q0 -53 -58 -60q-58 7 -58 60v376q0 65 -78 68v-445q0 -35 22 -56h-3q16 -16 45.5 -28t61.5 -12h20q26 0 48 7v-150q0 -54 -58 -61q-58 7 -58 61v9q0 65 -78 68v-79q0 -34 22 -57h-3q13 -7 24 -13.5t23 -11.5t26 -9t34 -5h5
q2 1 5 1t6 -1h4q59 0 107 39h-2q21 24 21 57zM257 733q-10 3 -19 4t-17 1q-53 0 -75 -48l-18 -41h1l-26 -49q10 -3 19 -4t17 -1q52 0 75 49zM319 155q0 7 -1 12.5t-1 10.5v-54q0 8 1 15.5t1 15.5z" />
    <glyph glyph-name="thorn" unicode="&#xfe;" horiz-adv-x="355" 
d="M319 92v219v60q0 32 -21 56h1q-6 9 -18 16.5t-27 12.5t-31.5 8t-31.5 3h-4q-4 0 -5 -1q-1 1 -5 1h-5q-14 0 -25.5 -2t-23.5 -5v139q0 63 -78 68l1 -697l-1 -167q78 4 78 69v133q14 -4 26 -5.5t23 -1.5h19q25 0 48 5.5t41 17.5t28.5 29.5t10.5 41.5zM123 92v279
q3 53 59 59q59 -8 59 -62v-273q0 -55 -59 -61q-56 6 -59 58z" />
    <glyph glyph-name="ydieresis" unicode="&#xff;" horiz-adv-x="354" 
d="M317 -151v61v268v361q-78 -5 -78 -69v-379q0 -53 -58 -60q-58 7 -58 60v376q0 65 -78 68v-445q0 -35 22 -56h-3q16 -16 45.5 -28t61.5 -12h20q26 0 48 7v-150q0 -54 -58 -61q-58 7 -58 61v9q0 65 -78 68v-79q0 -34 22 -57h-3q13 -7 24 -13.5t23 -11.5t26 -9t34 -5h5
q2 1 5 1t6 -1h4q59 0 107 39h-2q21 24 21 57zM155 590v75q0 63 -78 68v-74q0 -31 20 -50t58 -19zM283 590v75q0 63 -78 68v-74q0 -65 78 -69zM319 155q0 7 -1 12.5t-1 10.5v-54q0 8 1 15.5t1 15.5z" />
    <glyph glyph-name="FL259" horiz-adv-x="397" 
d="M359 326l-48 58q23 32 23 73q0 14 -2.5 27t-8.5 26l9 7q30 24 30 49q0 26 -23 50l-59 -50q-38 26 -83 26q-14 0 -26 -2.5t-26 -7.5q-25 28 -48 28t-51 -26l41 -48q-26 -32 -26 -79q0 -16 3.5 -31.5t11.5 -29.5l-2 -2q-29 -26 -29 -52q0 -24 23 -47l57 48q35 -20 72 -20
q29 0 58 13l6 -7q25 -28 48 -28q22 0 50 25zM259 457q0 -25 -18 -43.5t-44 -18.5q-24 0 -41 18.5t-17 43.5q0 26 17 44.5t41 18.5q26 0 44 -18.5t18 -44.5z" />
    <glyph glyph-name="minus" horiz-adv-x="398" 
d="M363 319h-260q-58 0 -58 -54v-9h260q58 0 58 56v7z" />
    <glyph glyph-name="foursuperior" horiz-adv-x="273" 
d="M238 451v4q0 43 -39 43v164q-56 -3 -56 -48v-116h-43v216q0 53 -55 56v-272q0 -47 54 -47h44v-145q0 -43 56 -47l-2 77v115h41z" />
    </font>
</defs>
</svg>
